<svg width="500" height="323" viewBox="0 0 500 323" fill="none" xmlns="http://www.w3.org/2000/svg">
<path d="M250 323.001C388.071 323.001 500 263.093 500 189.192C500 115.291 388.071 55.3828 250 55.3828C111.929 55.3828 0 115.291 0 189.192C0 263.093 111.929 323.001 250 323.001Z" fill="white"/>
<path d="M252.219 202.427L267.787 200.307C289.301 207.172 332.571 221.781 333.538 225.294C334.747 229.686 301.385 223.429 290.158 218.782C286.558 217.292 286.313 214.135 284.429 213.319C278.1 210.578 268.552 208.725 262.91 206.255L252.219 202.427Z" fill="#E0E0E0"/>
<path d="M250 189.193H245.525H244.553L247.082 187.828V185.487L250 189.193Z" fill="#37474F"/>
<path d="M235.652 178.86L240.695 180.742L236.131 182.424L235.652 178.86Z" fill="#37474F"/>
<path d="M280.429 175.197L279.587 172.051L279.404 171.367L282.363 172.478L286.62 171.336L280.429 175.197Z" fill="#37474F"/>
<path d="M274.117 159.601L278.547 159.812L273.982 161.493L274.117 159.601Z" fill="#37474F"/>
<path d="M261.404 144.556L263.729 139.694L264.987 144.402L261.404 144.556Z" fill="#37474F"/>
<path d="M59.0124 186.562C32.8727 147.381 117.908 103.066 155.306 73.9189C146.807 115.805 145.94 231.066 140.5 234.308C133.7 238.362 80.5 218.769 59.0124 186.562Z" fill="#E0E0E0"/>
<path d="M189.331 27.9469C167.647 26.8542 154.949 37.9578 155.921 54.4812C156.092 57.6569 156.788 69.7139 156.911 72.7006C157.273 77.1385 158.493 81.4416 160.503 85.3769C170.236 105.385 196.452 122.52 219.029 123.656C223.523 123.969 228.061 123.422 232.397 122.044L249.822 115.995C265.846 110.518 271.474 94.7862 262.118 75.5499C250.017 50.6731 217.433 29.3681 189.331 27.9469Z" fill="#37474F"/>
<path d="M184.013 51.134C161.422 49.9973 150.977 65.3069 160.716 85.3244C170.454 105.342 196.686 122.486 219.277 123.623C241.868 124.759 252.313 109.45 242.583 89.4494C232.854 69.449 206.63 52.2791 184.013 51.134Z" fill="#263238"/>
<path d="M145.898 73.7898C150.466 67.2492 159.243 63.4121 171.328 64.0061C195.585 65.2363 223.79 83.5797 234.252 105.095C239.479 115.843 239.264 125.293 234.738 131.919L191.41 196.023C186.901 202.683 178.064 206.486 165.927 205.875C141.678 204.662 113.545 186.241 103.091 164.743C97.8717 154.012 98.0783 144.545 102.604 137.919C104.174 135.687 144.372 76.0216 145.898 73.7898Z" fill="#1BAA75"/>
<path opacity="0.3" d="M145.898 73.7898C150.466 67.2492 159.243 63.4121 171.328 64.0061C195.585 65.2363 223.79 83.5797 234.252 105.095C239.479 115.843 239.264 125.293 234.738 131.919L191.41 196.023C186.901 202.683 178.064 206.486 165.927 205.875C141.678 204.662 113.545 186.241 103.091 164.743C97.8717 154.012 98.0783 144.545 102.604 137.919C104.174 135.687 144.372 76.0216 145.898 73.7898Z" fill="white"/>
<path opacity="0.45" d="M142.14 199.92L219.297 86.1419C225.469 91.6189 230.556 98.1898 234.311 105.536C239.527 116.261 239.312 125.69 234.796 132.302L191.557 196.267C187.057 202.914 178.239 206.708 166.127 206.099C157.777 205.509 149.65 203.415 142.14 199.92Z" fill="#1BAA75"/>
<path d="M128.654 127.808C104.336 126.575 93.1211 143.037 103.594 164.564C114.066 186.091 142.279 204.57 166.588 205.785C190.898 207.001 202.139 190.547 191.666 169.02C181.194 147.493 152.981 129.015 128.654 127.808Z" fill="#263238"/>
<path d="M182.012 180.59C172.288 160.6 146.091 143.457 123.489 142.312C118.714 141.962 113.889 142.61 109.325 144.216C109.185 144.286 94.946 149.531 91.8677 150.644C76.2484 156.324 70.7809 171.847 80.0622 190.928C92.1621 215.804 124.745 237.108 152.845 238.529C174.242 239.616 186.847 228.815 186.294 212.615C186.177 209.327 185.738 196.993 185.65 194.032C185.396 189.323 184.157 184.746 182.012 180.59Z" fill="#37474F"/>
<path d="M109.052 148.375C80.9322 146.953 67.9628 165.998 80.0708 190.888C92.1788 215.777 124.783 237.092 152.903 238.514C181.022 239.936 193.922 220.926 181.813 196.036C169.705 171.147 137.146 149.788 109.052 148.375Z" fill="#455A64"/>
<path d="M80.3867 191.065C86.1642 202.681 94.6133 212.735 105.073 220.439C115.398 228.375 127.268 234.153 139.997 237.437C146.393 239.041 153.03 239.647 159.672 239.234C161.34 239.148 163.001 238.929 164.641 238.578L167.112 238.065C167.922 237.852 168.716 237.561 169.527 237.304C172.755 236.268 175.774 234.642 178.426 232.512C181.042 230.311 183.162 227.589 184.642 224.531C184.969 223.772 185.228 222.961 185.521 222.177L185.943 220.987L186.175 219.764L186.691 217.378L186.801 214.919C186.778 208.346 185.108 201.929 181.941 196.245L183.731 200.732L185.104 205.343C185.358 206.939 185.725 208.5 185.892 210.097L186.017 212.503C186.051 212.899 186.063 213.298 186.054 213.697L185.961 214.893L185.8 217.292L185.285 219.678L185.027 220.849L184.598 221.979C184.306 222.721 184.048 223.488 183.721 224.204C182.22 227.029 180.138 229.521 177.614 231.514C172.323 235.31 166.049 237.47 159.607 237.713C153.131 238.056 146.668 237.414 140.445 235.809C127.912 232.619 116.184 227.051 105.899 219.409C100.706 215.646 95.9155 211.372 91.5986 206.648C87.1974 201.965 83.4299 196.729 80.3867 191.065Z" fill="#37474F"/>
<path d="M206.563 152.025C206.101 149.09 206.346 146.068 207.28 143.204C208.214 140.341 209.81 137.717 211.937 135.545C212.66 134.735 213.579 134.122 214.602 133.767C215.626 133.412 216.718 133.327 217.768 133.522L252.362 144.234L256.298 149.285L248.826 148.059L255.513 159.075L248.609 159.618L252.405 164.796L242.543 166.865L210.169 156.799C209.186 156.404 208.334 155.754 207.7 154.915C207.067 154.076 206.674 153.079 206.563 152.025Z" fill="#37474F"/>
<path d="M210.352 156.829C209.348 156.44 208.478 155.786 207.831 154.937C207.184 154.088 206.786 153.075 206.677 152.005C206.271 149.833 206.313 147.589 206.8 145.408L252.654 159.454L248.626 159.653L252.229 164.758L242.585 166.867L210.282 156.821L210.352 156.829Z" fill="#263238"/>
<path d="M297.096 186.817C298.108 187.164 299.009 187.775 299.707 188.586C300.405 189.397 300.876 190.379 301.07 191.432C301.769 194.351 301.769 197.395 301.07 200.315C300.371 203.235 298.994 205.949 297.05 208.235C296.394 209.089 295.523 209.753 294.526 210.157C293.529 210.561 292.443 210.692 291.379 210.534L261.602 203.224L270.709 200.734L266.57 195.757L273.193 194.837L265.742 184.142L273.194 184.972L269.054 180.112L297.096 186.817Z" fill="#37474F"/>
<path d="M300.483 202.549C299.754 204.664 298.599 206.608 297.089 208.259C296.434 209.113 295.563 209.776 294.566 210.18C293.569 210.585 292.482 210.715 291.418 210.558L261.239 203.333L270.711 200.734L266.571 195.756L270.091 195.258L300.483 202.549Z" fill="#263238"/>
<path d="M421.58 209.446L302.546 185.446L302.462 185.494C301.109 185.333 299.737 185.524 298.478 186.049C297.22 186.574 296.117 187.415 295.277 188.491C292.753 191.466 290.964 194.995 290.055 198.792C289.146 202.588 289.143 206.545 290.046 210.342C291.062 213.769 292.983 215.825 295.28 216.37L412.19 249.985C414.869 250.684 417.661 250.838 420.401 250.44C423.141 250.041 425.774 249.098 428.145 247.666C430.516 246.233 432.578 244.34 434.208 242.098C435.838 239.856 437.004 237.311 437.638 234.611C438.272 231.912 438.36 229.113 437.897 226.38C437.434 223.646 436.43 221.034 434.944 218.695C433.458 216.357 431.52 214.34 429.243 212.764C426.967 211.188 424.398 210.084 421.688 209.517L421.58 209.446Z" fill="#1BAA75"/>
<path opacity="0.2" d="M422.033 209.539C424.082 210.206 425.862 211.513 427.115 213.267C428.367 215.022 429.026 217.132 428.994 219.29C428.962 221.447 428.242 223.538 426.938 225.257C425.635 226.975 423.816 228.231 421.749 228.841C420.197 229.289 418.561 229.364 416.974 229.06L290.184 197.903C288.982 201.944 288.891 206.235 289.922 210.322C290.938 213.749 292.859 215.806 295.155 216.351L412.066 249.966C415.658 250.898 419.435 250.84 422.998 249.798C427.414 248.529 431.286 245.83 434.009 242.123C436.732 238.417 438.152 233.912 438.048 229.313C437.944 224.714 436.321 220.28 433.433 216.705C430.545 213.13 426.555 210.615 422.086 209.553L422.033 209.539Z" fill="black"/>
</svg>
