<svg xmlns="http://www.w3.org/2000/svg" width="25" height="24" viewBox="0 0 25 24" fill="none">
  <path d="M16.5 13C17.0523 13 17.5 12.5523 17.5 12C17.5 11.4477 17.0523 11 16.5 11C15.9477 11 15.5 11.4477 15.5 12C15.5 12.5523 15.9477 13 16.5 13Z" fill="white"/>
  <path d="M12.5 13C13.0523 13 13.5 12.5523 13.5 12C13.5 11.4477 13.0523 11 12.5 11C11.9477 11 11.5 11.4477 11.5 12C11.5 12.5523 11.9477 13 12.5 13Z" fill="white"/>
  <path d="M8.5 13C9.05228 13 9.5 12.5523 9.5 12C9.5 11.4477 9.05228 11 8.5 11C7.94772 11 7.5 11.4477 7.5 12C7.5 12.5523 7.94772 13 8.5 13Z" fill="white"/>
  <path d="M19.5701 4.93002C17.9293 3.27852 15.7638 2.25124 13.4467 2.02526C11.1297 1.79929 8.80647 2.3888 6.8775 3.69215C4.94854 4.99551 3.53475 6.93103 2.87988 9.16503C2.22501 11.399 2.37009 13.7915 3.29012 15.93C3.38601 16.1288 3.41747 16.3525 3.38012 16.57L2.50012 20.8C2.46621 20.9622 2.47314 21.1303 2.52027 21.2891C2.56739 21.4479 2.65325 21.5926 2.77012 21.71C2.86592 21.8051 2.97999 21.8799 3.10545 21.9297C3.23091 21.9795 3.36516 22.0035 3.50012 22H3.70012L7.98012 21.14C8.19765 21.1139 8.41824 21.1449 8.62012 21.23C10.7586 22.15 13.1511 22.2951 15.3851 21.6403C17.6191 20.9854 19.5546 19.5716 20.858 17.6426C22.1613 15.7137 22.7508 13.3904 22.5249 11.0734C22.2989 8.75638 21.2716 6.59081 19.6201 4.95002L19.5701 4.93002ZM20.4001 13.29C20.2046 14.484 19.7408 15.6181 19.0437 16.6069C18.3465 17.5958 17.4342 18.4136 16.3753 18.9989C15.3164 19.5842 14.1385 19.9216 12.9303 19.9859C11.7222 20.0502 10.5151 19.8396 9.40012 19.37C9.00466 19.2018 8.57985 19.1135 8.15012 19.11C7.9624 19.1113 7.7751 19.1281 7.59012 19.16L4.77012 19.73L5.34012 16.91C5.45364 16.2993 5.38046 15.6685 5.13012 15.1C4.66051 13.985 4.44992 12.778 4.51421 11.5698C4.5785 10.3616 4.91598 9.18377 5.50126 8.12487C6.08654 7.06598 6.90438 6.15362 7.89321 5.45647C8.88205 4.75932 10.0161 4.29554 11.2101 4.10002C12.4634 3.89434 13.7476 3.99 14.9566 4.37908C16.1656 4.76817 17.2645 5.43951 18.1626 6.33756C19.0606 7.23561 19.732 8.33457 20.1211 9.54354C20.5101 10.7525 20.6058 12.0367 20.4001 13.29Z" fill="white"/>
</svg>