<svg width="17" height="16" viewBox="0 0 17 16" fill="none" xmlns="http://www.w3.org/2000/svg">
<g clip-path="url(#clip0_2725_40207)">
<path d="M16 13.5H9C8.724 13.5 8.5 13.276 8.5 13C8.5 12.724 8.5 3.276 8.5 3C8.5 2.724 8.724 2.5 9 2.5H16C16.276 2.5 16.5 2.724 16.5 3V13C16.5 13.276 16.276 13.5 16 13.5Z" fill="#F3F4F6"/>
<g clip-path="url(#clip1_2725_40207)">
<path d="M11 6H9C8.724 6 8.5 5.776 8.5 5.5C8.5 5.224 8.724 5 9 5H11C11.276 5 11.5 5.224 11.5 5.5C11.5 5.776 11.276 6 11 6Z" fill="#388E3C"/>
<path d="M11 8H9C8.724 8 8.5 7.776 8.5 7.5C8.5 7.224 8.724 7 9 7H11C11.276 7 11.5 7.224 11.5 7.5C11.5 7.776 11.276 8 11 8Z" fill="#388E3C"/>
<path d="M11 10H9C8.724 10 8.5 9.776 8.5 9.5C8.5 9.224 8.724 9 9 9H11C11.276 9 11.5 9.224 11.5 9.5C11.5 9.776 11.276 10 11 10Z" fill="#388E3C"/>
<path d="M11 12H9C8.724 12 8.5 11.776 8.5 11.5C8.5 11.224 8.724 11 9 11H11C11.276 11 11.5 11.224 11.5 11.5C11.5 11.776 11.276 12 11 12Z" fill="#388E3C"/>
<path d="M14 6H13C12.724 6 12.5 5.776 12.5 5.5C12.5 5.224 12.724 5 13 5H14C14.276 5 14.5 5.224 14.5 5.5C14.5 5.776 14.276 6 14 6Z" fill="#388E3C"/>
<path d="M14 8H13C12.724 8 12.5 7.776 12.5 7.5C12.5 7.224 12.724 7 13 7H14C14.276 7 14.5 7.224 14.5 7.5C14.5 7.776 14.276 8 14 8Z" fill="#388E3C"/>
<path d="M14 10H13C12.724 10 12.5 9.776 12.5 9.5C12.5 9.224 12.724 9 13 9H14C14.276 9 14.5 9.224 14.5 9.5C14.5 9.776 14.276 10 14 10Z" fill="#388E3C"/>
<path d="M14 12H13C12.724 12 12.5 11.776 12.5 11.5C12.5 11.224 12.724 11 13 11H14C14.276 11 14.5 11.224 14.5 11.5C14.5 11.776 14.276 12 14 12Z" fill="#388E3C"/>
</g>
<path d="M9.319 0.615674C9.205 0.520674 9.052 0.479674 8.908 0.509674L0.908 2.00967C0.671 2.05367 0.5 2.25967 0.5 2.50067V13.5007C0.5 13.7407 0.671 13.9477 0.908 13.9917L8.908 15.4917C8.938 15.4977 8.969 15.5007 9 15.5007C9.116 15.5007 9.229 15.4607 9.319 15.3857C9.434 15.2907 9.5 15.1487 9.5 15.0007V1.00067C9.5 0.851674 9.434 0.710674 9.319 0.615674Z" fill="#2E7D32"/>
<path d="M7.37603 9.67051L5.79503 7.86351L7.39403 5.80751C7.56403 5.58951 7.52403 5.27551 7.30703 5.10551C7.09003 4.93551 6.77603 4.97551 6.60503 5.19251L5.12403 7.09651L3.87603 5.67051C3.69303 5.46051 3.37703 5.44151 3.17103 5.62351C2.96303 5.80551 2.94203 6.12151 3.12403 6.32851L4.49903 7.90051L3.10503 9.69251C2.93503 9.91051 2.97503 10.2245 3.19203 10.3945C3.28403 10.4655 3.39303 10.4995 3.50003 10.4995C3.64903 10.4995 3.79603 10.4335 3.89503 10.3065L5.17003 8.66651L6.62403 10.3275C6.72303 10.4415 6.86103 10.4995 7.00003 10.4995C7.11703 10.4995 7.23403 10.4585 7.32903 10.3755C7.53703 10.1935 7.55803 9.87751 7.37603 9.67051Z" fill="#F9FAFB"/>
</g>
<defs>
<clipPath id="clip0_2725_40207">
<rect width="16" height="16" fill="white" transform="translate(0.5)"/>
</clipPath>
<clipPath id="clip1_2725_40207">
<rect width="6" height="6.99998" fill="white" transform="translate(8.5 5)"/>
</clipPath>
</defs>
</svg>
