<svg width="13" height="13" viewBox="0 0 13 13" fill="none" xmlns="http://www.w3.org/2000/svg">
<path d="M12 1H13V0H12V1ZM0.792893 10.7929C0.402369 11.1834 0.402369 11.8166 0.792893 12.2071C1.18342 12.5976 1.81658 12.5976 2.20711 12.2071L0.792893 10.7929ZM2 0H1V2H2V0ZM11 11V12H13V11H11ZM11.2929 0.292893L0.792893 10.7929L2.20711 12.2071L12.7071 1.70711L11.2929 0.292893ZM2 2H12V0H2V2ZM12 1C11 1 11 1.00002 11 1.00007C11 1.00012 11 1.00019 11 1.00028C11 1.00037 11 1.00049 11 1.00063C11 1.00077 11 1.00093 11 1.00111C11 1.0013 11 1.00151 11 1.00174C11 1.00197 11 1.00222 11 1.0025C11 1.00277 11 1.00307 11 1.0034C11 1.00372 11 1.00406 11 1.00443C11 1.0048 11 1.00519 11 1.0056C11 1.00602 11 1.00645 11 1.00691C11 1.00737 11 1.00785 11 1.00836C11 1.00886 11 1.00939 11 1.00994C11 1.01049 11 1.01106 11 1.01165C11 1.01225 11 1.01286 11 1.0135C11 1.01414 11 1.0148 11 1.01549C11 1.01617 11 1.01687 11 1.0176C11 1.01833 11 1.01908 11 1.01985C11 1.02063 11 1.02142 11 1.02224C11 1.02306 11 1.02389 11 1.02476C11 1.02562 11 1.0265 11 1.02741C11 1.02831 11 1.02924 11 1.03019C11 1.03114 11 1.03211 11 1.0331C11 1.03409 11 1.03511 11 1.03615C11 1.03718 11 1.03824 11 1.03932C11 1.0404 11 1.0415 11 1.04263C11 1.04375 11 1.0449 11 1.04607C11 1.04723 11 1.04842 11 1.04963C11 1.05084 11 1.05207 11 1.05333C11 1.05458 11 1.05586 11 1.05715C11 1.05845 11 1.05977 11 1.06111C11 1.06245 11 1.06381 11 1.06519C11 1.06657 11 1.06798 11 1.0694C11 1.07083 11 1.07227 11 1.07374C11 1.07521 11 1.07669 11 1.0782C11 1.07971 11 1.08124 11 1.0828C11 1.08435 11 1.08592 11 1.08751C11 1.08911 11 1.09072 11 1.09236C11 1.094 11 1.09565 11 1.09733C11 1.09901 11 1.10071 11 1.10243C11 1.10415 11 1.10589 11 1.10765C11 1.10941 11 1.11119 11 1.11299C11 1.1148 11 1.11662 11 1.11846C11 1.12031 11 1.12217 11 1.12406C11 1.12594 11 1.12785 11 1.12978C11 1.1317 11 1.13365 11 1.13562C11 1.13758 11 1.13957 11 1.14158C11 1.14359 11 1.14562 11 1.14767C11 1.14972 11 1.15179 11 1.15388C11 1.15597 11 1.15808 11 1.16021C11 1.16234 11 1.16449 11 1.16666C11 1.16883 11 1.17102 11 1.17323C11 1.17544 11 1.17767 11 1.17992C11 1.18217 11 1.18444 11 1.18674C11 1.18903 11 1.19134 11 1.19367C11 1.196 11 1.19835 11 1.20072C11 1.20309 11 1.20548 11 1.20789C11 1.2103 11 1.21273 11 1.21518C11 1.21763 11 1.2201 11 1.22259C11 1.22508 11 1.22759 11 1.23012C11 1.23265 11 1.2352 11 1.23776C11 1.24033 11 1.24292 11 1.24553C11 1.24813 11 1.25076 11 1.2534C11 1.25605 11 1.25872 11 1.2614C11 1.26408 11 1.26679 11 1.26951C11 1.27223 11 1.27498 11 1.27774C11 1.2805 11 1.28328 11 1.28608C11 1.28888 11 1.2917 11 1.29454C11 1.29738 11 1.30024 11 1.30311C11 1.30599 11 1.30888 11 1.3118C11 1.31471 11 1.31765 11 1.3206C11 1.32355 11 1.32652 11 1.32951C11 1.3325 11 1.33551 11 1.33854C11 1.34157 11 1.34462 11 1.34768C11 1.35075 11 1.35383 11 1.35693C11 1.36004 11 1.36316 11 1.3663C11 1.36944 11 1.3726 11 1.37578C11 1.37895 11 1.38215 11 1.38536C11 1.38858 11 1.39181 11 1.39506C11 1.39831 11 1.40158 11 1.40487C11 1.40816 11 1.41147 11 1.41479C11 1.41812 11 1.42146 11 1.42482C11 1.42818 11 1.43156 11 1.43496C11 1.43836 11 1.44177 11 1.44521C11 1.44864 11 1.45209 11 1.45557C11 1.45904 11 1.46252 11 1.46603C11 1.46954 11 1.47306 11 1.4766C11 1.48015 11 1.48371 11 1.48729C11 1.49086 11 1.49446 11 1.49807C11 1.50169 11 1.50532 11 1.50897C11 1.51262 11 1.51629 11 1.51997C11 1.52366 11 1.52736 11 1.53108C11 1.5348 11 1.53854 11 1.54229C11 1.54605 11 1.54982 11 1.55361C11 1.5574 11 1.56121 11 1.56504C11 1.56886 11 1.5727 11 1.57656C11 1.58043 11 1.5843 11 1.5882C11 1.59209 11 1.59601 11 1.59994C11 1.60387 11 1.60781 11 1.61178C11 1.61574 11 1.61972 11 1.62372C11 1.62772 11 1.63173 11 1.63577C11 1.6398 11 1.64385 11 1.64792C11 1.65198 11 1.65607 11 1.66017C11 1.66427 11 1.66839 11 1.67252C11 1.67666 11 1.68081 11 1.68498C11 1.68914 11 1.69333 11 1.69753C11 1.70173 11 1.70595 11 1.71019C11 1.71442 11 1.71867 11 1.72294C11 1.72721 11 1.7315 11 1.7358C11 1.7401 11 1.74442 11 1.74875C11 1.75309 11 1.75744 11 1.76181C11 1.76618 11 1.77056 11 1.77496C11 1.77936 11 1.78378 11 1.78822C11 1.79265 11 1.7971 11 1.80157C11 1.80603 11 1.81051 11 1.81501C11 1.81951 11 1.82403 11 1.82856C11 1.83309 11 1.83764 11 1.8422C11 1.84676 11 1.85134 11 1.85594C11 1.86053 11 1.86514 11 1.86977C11 1.8744 11 1.87904 11 1.8837C11 1.88836 11 1.89304 11 1.89773C11 1.90242 11 1.90713 11 1.91185C11 1.91657 11 1.92131 11 1.92606C11 1.93082 11 1.93559 11 1.94037C11 1.94516 11 1.94996 11 1.95478C11 1.9596 11 1.96443 11 1.96928C11 1.97412 11 1.97899 11 1.98387C11 1.98875 11 1.99364 11 1.99855C11 2.00346 11 2.00838 11 2.01333C11 2.01827 11 2.02322 11 2.02819C11 2.03316 11 2.03815 11 2.04315C11 2.04815 11 2.05317 11 2.0582C11 2.06324 11 2.06828 11 2.07335C11 2.07841 11 2.08349 11 2.08858C11 2.09367 11 2.09878 11 2.1039C11 2.10902 11 2.11416 11 2.11931C11 2.12447 11 2.12963 11 2.13482C11 2.14 11 2.1452 11 2.15041C11 2.15562 11 2.16085 11 2.16609C11 2.17133 11 2.17659 11 2.18186C11 2.18713 11 2.19241 11 2.19771C11 2.20301 11 2.20833 11 2.21366C11 2.21899 11 2.22433 11 2.22969C11 2.23505 11 2.24042 11 2.24581C11 2.25119 11 2.2566 11 2.26201C11 2.26743 11 2.27286 11 2.2783C11 2.28375 11 2.28921 11 2.29468C11 2.30015 11 2.30564 11 2.31114C11 2.31664 11 2.32216 11 2.32769C11 2.33322 11 2.33876 11 2.34432C11 2.34988 11 2.35545 11 2.36104C11 2.36662 11 2.37222 11 2.37784C11 2.38345 11 2.38908 11 2.39472C11 2.40036 11 2.40602 11 2.41169C11 2.41736 11 2.42304 11 2.42874C11 2.43444 11 2.44015 11 2.44587C11 2.4516 11 2.45733 11 2.46309C11 2.46884 11 2.4746 11 2.48038C11 2.48616 11 2.49195 11 2.49776C11 2.50357 11 2.50939 11 2.51522C11 2.52105 11 2.5269 11 2.53276C11 2.53862 11 2.54449 11 2.55038C11 2.55626 11 2.56216 11 2.56808C11 2.57399 11 2.57992 11 2.58586C11 2.59179 11 2.59775 11 2.60371C11 2.60968 11 2.61566 11 2.62165C11 2.62764 11 2.63365 11 2.63966C11 2.64568 11 2.65171 11 2.65776C11 2.6638 11 2.66986 11 2.67593C11 2.682 11 2.68808 11 2.69418C11 2.70027 11 2.70638 11 2.7125C11 2.71862 11 2.72476 11 2.7309C11 2.73705 11 2.74321 11 2.74938C11 2.75555 11 2.76174 11 2.76793C11 2.77413 11 2.78034 11 2.78656C11 2.79279 11 2.79902 11 2.80527C11 2.81151 11 2.81777 11 2.82405C11 2.83032 11 2.8366 11 2.8429C11 2.8492 11 2.8555 11 2.86183C11 2.86815 11 2.87448 11 2.88083C11 2.88717 11 2.89353 11 2.8999C11 2.90627 11 2.91265 11 2.91905C11 2.92544 11 2.93185 11 2.93827C11 2.94468 11 2.95111 11 2.95756C11 2.964 11 2.97045 11 2.97692C11 2.98339 11 2.98986 11 2.99635C11 3.00284 11 3.00935 11 3.01586C11 3.02237 11 3.0289 11 3.03543C11 3.04197 11 3.04852 11 3.05508C11 3.06164 11 3.06821 11 3.0748C11 3.08138 11 3.08798 11 3.09458C11 3.10119 11 3.10781 11 3.11444C11 3.12107 11 3.12771 11 3.13436C11 3.14101 11 3.14768 11 3.15435C11 3.16103 11 3.16771 11 3.17441C11 3.18111 11 3.18782 11 3.19454C11 3.20126 11 3.20799 11 3.21473C11 3.22148 11 3.22823 11 3.23499C11 3.24176 11 3.24854 11 3.25532C11 3.26211 11 3.26891 11 3.27572C11 3.28253 11 3.28935 11 3.29618C11 3.30301 11 3.30985 11 3.3167C11 3.32356 11 3.33042 11 3.33729C11 3.34417 11 3.35105 11 3.35795C11 3.36484 11 3.37175 11 3.37867C11 3.38559 11 3.39251 11 3.39945C11 3.40639 11 3.41334 11 3.4203C11 3.42726 11 3.43423 11 3.44121C11 3.44819 11 3.45518 11 3.46218C11 3.46918 11 3.4762 11 3.48322C11 3.49024 11 3.49727 11 3.50432C11 3.51136 11 3.51841 11 3.52548C11 3.53254 11 3.53961 11 3.5467C11 3.55378 11 3.56087 11 3.56798C11 3.57508 11 3.5822 11 3.58932C11 3.59644 11 3.60358 11 3.61072C11 3.61787 11 3.62502 11 3.63219C11 3.63935 11 3.64652 11 3.65371C11 3.66089 11 3.66809 11 3.67529C11 3.68249 11 3.68971 11 3.69693C11 3.70415 11 3.71138 11 3.71863C11 3.72587 11 3.73312 11 3.74038C11 3.74765 11 3.75492 11 3.7622C11 3.76948 11 3.77677 11 3.78407C11 3.79137 11 3.79868 11 3.806C11 3.81332 11 3.82064 11 3.82798C11 3.83532 11 3.84267 11 3.85002C11 3.85738 11 3.86474 11 3.87212C11 3.87949 11 3.88688 11 3.89427C11 3.90166 11 3.90907 11 3.91648C11 3.92389 11 3.93131 11 3.93874C11 3.94617 11 3.95361 11 3.96106C11 3.9685 11 3.97596 11 3.98343C11 3.99089 11 3.99837 11 4.00585C11 4.01333 11 4.02083 11 4.02833C11 4.03583 11 4.04334 11 4.05086C11 4.05838 11 4.0659 11 4.07344C11 4.08098 11 4.08852 11 4.09607C11 4.10363 11 4.11119 11 4.11876C11 4.12633 11 4.13391 11 4.1415C11 4.14909 11 4.15668 11 4.16429C11 4.17189 11 4.1795 11 4.18713C11 4.19475 11 4.20238 11 4.21001C11 4.21765 11 4.2253 11 4.23295C11 4.24061 11 4.24827 11 4.25594C11 4.26361 11 4.27129 11 4.27898C11 4.28667 11 4.29436 11 4.30207C11 4.30977 11 4.31748 11 4.3252C11 4.33292 11 4.34065 11 4.34839C11 4.35612 11 4.36386 11 4.37162C11 4.37937 11 4.38713 11 4.39489C11 4.40266 11 4.41044 11 4.41822C11 4.426 11 4.43379 11 4.44159C11 4.44939 11 4.45719 11 4.46501C11 4.47282 11 4.48064 11 4.48847C11 4.4963 11 4.50414 11 4.51198C11 4.51982 11 4.52768 11 4.53553C11 4.54339 11 4.55126 11 4.55913C11 4.56701 11 4.57489 11 4.58278C11 4.59066 11 4.59856 11 4.60646C11 4.61437 11 4.62228 11 4.63019C11 4.63811 11 4.64603 11 4.65397C11 4.6619 11 4.66984 11 4.67778C11 4.68573 11 4.69368 11 4.70164C11 4.7096 11 4.71757 11 4.72554C11 4.73352 11 4.7415 11 4.74949C11 4.75747 11 4.76547 11 4.77347C11 4.78147 11 4.78948 11 4.79749C11 4.80551 11 4.81353 11 4.82156C11 4.82959 11 4.83762 11 4.84567C11 4.85371 11 4.86176 11 4.86981C11 4.87787 11 4.88593 11 4.894C11 4.90207 11 4.91014 11 4.91822C11 4.9263 11 4.93439 11 4.94249C11 4.95058 11 4.95868 11 4.96679C11 4.97489 11 4.98301 11 4.99113C11 4.99925 11 5.00737 11 5.0155C11 5.02364 11 5.03177 11 5.03992C11 5.04806 11 5.05621 11 5.06437C11 5.07253 11 5.08069 11 5.08886C11 5.09703 11 5.1052 11 5.11338C11 5.12156 11 5.12975 11 5.13794C11 5.14614 11 5.15433 11 5.16254C11 5.17074 11 5.17895 11 5.18717C11 5.19539 11 5.20361 11 5.21183C11 5.22006 11 5.2283 11 5.23653C11 5.24477 11 5.25302 11 5.26127C11 5.26952 11 5.27777 11 5.28604C11 5.2943 11 5.30256 11 5.31084C11 5.31911 11 5.32739 11 5.33567C11 5.34395 11 5.35224 11 5.36053C11 5.36883 11 5.37713 11 5.38543C11 5.39374 11 5.40205 11 5.41036C11 5.41868 11 5.427 11 5.43532C11 5.44365 11 5.45198 11 5.46031C11 5.46865 11 5.47699 11 5.48534C11 5.49368 11 5.50203 11 5.51039C11 5.51875 11 5.52711 11 5.53547C11 5.54384 11 5.55221 11 5.56058C11 5.56896 11 5.57734 11 5.58573C11 5.59411 11 5.6025 11 5.6109C11 5.61929 11 5.62769 11 5.63609C11 5.6445 11 5.65291 11 5.66132C11 5.66973 11 5.67815 11 5.68657C11 5.695 11 5.70342 11 5.71186C11 5.72029 11 5.72872 11 5.73716C11 5.7456 11 5.75405 11 5.7625C11 5.77095 11 5.7794 11 5.78786C11 5.79632 11 5.80478 11 5.81325C11 5.82171 11 5.83018 11 5.83866C11 5.84713 11 5.85561 11 5.8641C11 5.87258 11 5.88107 11 5.88956C11 5.89805 11 5.90655 11 5.91504C11 5.92354 11 5.93205 11 5.94055C11 5.94906 11 5.95757 11 5.96609C11 5.9746 11 5.98312 11 5.99165C11 6.00017 11 6.0087 11 6.01723C11 6.02576 11 6.03429 11 6.04283C11 6.05137 11 6.05991 11 6.06845C11 6.077 11 6.08555 11 6.0941C11 6.10265 11 6.11121 11 6.11977C11 6.12833 11 6.13689 11 6.14545C11 6.15402 11 6.16259 11 6.17116C11 6.17974 11 6.18831 11 6.19689C11 6.20547 11 6.21406 11 6.22264C11 6.23123 11 6.23982 11 6.24841C11 6.257 11 6.2656 11 6.2742C11 6.2828 11 6.2914 11 6.30001C11 6.30861 11 6.31722 11 6.32583C11 6.33444 11 6.34306 11 6.35167C11 6.36029 11 6.36891 11 6.37754C11 6.38616 11 6.39478 11 6.40341C11 6.41204 11 6.42067 11 6.42931C11 6.43794 11 6.44658 11 6.45522C11 6.46386 11 6.4725 11 6.48115C11 6.48979 11 6.49844 11 6.50709C11 6.51574 11 6.52439 11 6.53305C11 6.54171 11 6.55036 11 6.55902C11 6.56769 11 6.57635 11 6.58501C11 6.59368 11 6.60235 11 6.61102C11 6.61969 11 6.62836 11 6.63703C11 6.64571 11 6.65439 11 6.66306C11 6.67174 11 6.68042 11 6.68911C11 6.69779 11 6.70648 11 6.71516C11 6.72385 11 6.73254 11 6.74123C11 6.74993 11 6.75862 11 6.76731C11 6.77601 11 6.78471 11 6.79341C11 6.80211 11 6.81081 11 6.81951C11 6.82822 11 6.83692 11 6.84563C11 6.85433 11 6.86304 11 6.87175C11 6.88046 11 6.88918 11 6.89789C11 6.9066 11 6.91532 11 6.92404C11 6.93275 11 6.94147 11 6.95019C11 6.95891 11 6.96763 11 6.97636C11 6.98508 11 6.9938 11 7.00253C11 7.01126 11 7.01998 11 7.02871C11 7.03744 11 7.04617 11 7.0549C11 7.06363 11 7.07237 11 7.0811C11 7.08983 11 7.09857 11 7.1073C11 7.11604 11 7.12478 11 7.13352C11 7.14225 11 7.15099 11 7.15973C11 7.16847 11 7.17722 11 7.18596C11 7.1947 11 7.20344 11 7.21219C11 7.22093 11 7.22968 11 7.23842C11 7.24717 11 7.25592 11 7.26467C11 7.27341 11 7.28216 11 7.29091C11 7.29966 11 7.30841 11 7.31716C11 7.32591 11 7.33466 11 7.34341C11 7.35217 11 7.36092 11 7.36967C11 7.37843 11 7.38718 11 7.39593C11 7.40469 11 7.41344 11 7.4222C11 7.43095 11 7.43971 11 7.44846C11 7.45722 11 7.46597 11 7.47473C11 7.48349 11 7.49224 11 7.501C11 7.50976 11 7.51851 11 7.52727C11 7.53603 11 7.54479 11 7.55354C11 7.5623 11 7.57106 11 7.57982C11 7.58857 11 7.59733 11 7.60609C11 7.61485 11 7.6236 11 7.63236C11 7.64112 11 7.64988 11 7.65863C11 7.66739 11 7.67615 11 7.68491C11 7.69366 11 7.70242 11 7.71118C11 7.71993 11 7.72869 11 7.73744C11 7.7462 11 7.75496 11 7.76371C11 7.77247 11 7.78122 11 7.78998C11 7.79873 11 7.80748 11 7.81624C11 7.82499 11 7.83374 11 7.8425C11 7.85125 11 7.86 11 7.86875C11 7.8775 11 7.88625 11 7.895C11 7.90375 11 7.9125 11 7.92125C11 7.93 11 7.93875 11 7.94749C11 7.95624 11 7.96498 11 7.97373C11 7.98247 11 7.99122 11 7.99996C11 8.00871 11 8.01745 11 8.02619C11 8.03493 11 8.04367 11 8.05241C11 8.06115 11 8.06989 11 8.07862C11 8.08736 11 8.0961 11 8.10483C11 8.11357 11 8.1223 11 8.13103C11 8.13976 11 8.14849 11 8.15722C11 8.16595 11 8.17468 11 8.18341C11 8.19214 11 8.20086 11 8.20959C11 8.21831 11 8.22703 11 8.23575C11 8.24447 11 8.25319 11 8.26191C11 8.27063 11 8.27935 11 8.28806C11 8.29678 11 8.30549 11 8.3142C11 8.32291 11 8.33162 11 8.34033C11 8.34904 11 8.35775 11 8.36645C11 8.37515 11 8.38386 11 8.39256C11 8.40126 11 8.40996 11 8.41866C11 8.42735 11 8.43605 11 8.44474C11 8.45343 11 8.46213 11 8.47081C11 8.4795 11 8.48819 11 8.49688C11 8.50556 11 8.51424 11 8.52292C11 8.53161 11 8.54028 11 8.54896C11 8.55764 11 8.56631 11 8.57498C11 8.58365 11 8.59232 11 8.60099C11 8.60966 11 8.61832 11 8.62698C11 8.63565 11 8.64431 11 8.65296C11 8.66162 11 8.67028 11 8.67893C11 8.68758 11 8.69623 11 8.70488C11 8.71352 11 8.72217 11 8.73081C11 8.73945 11 8.74809 11 8.75673C11 8.76536 11 8.774 11 8.78263C11 8.79126 11 8.79989 11 8.80851C11 8.81714 11 8.82576 11 8.83438C11 8.843 11 8.85162 11 8.86023C11 8.86884 11 8.87745 11 8.88606C11 8.89467 11 8.90327 11 8.91187C11 8.92048 11 8.92907 11 8.93767C11 8.94626 11 8.95486 11 8.96345C11 8.97203 11 8.98062 11 8.9892C11 8.99778 11 9.00636 11 9.01494C11 9.02351 11 9.03209 11 9.04065C11 9.04922 11 9.05779 11 9.06635C11 9.07491 11 9.08347 11 9.09203C11 9.10058 11 9.10913 11 9.11768C11 9.12623 11 9.13477 11 9.14331C11 9.15185 11 9.16039 11 9.16892C11 9.17746 11 9.18598 11 9.19451C11 9.20304 11 9.21156 11 9.22008C11 9.22859 11 9.23711 11 9.24562C11 9.25413 11 9.26263 11 9.27114C11 9.27964 11 9.28814 11 9.29663C11 9.30513 11 9.31362 11 9.3221C11 9.33059 11 9.33907 11 9.34755C11 9.35603 11 9.3645 11 9.37297C11 9.38144 11 9.3899 11 9.39837C11 9.40683 11 9.41528 11 9.42374C11 9.43219 11 9.44064 11 9.44908C11 9.45752 11 9.46596 11 9.4744C11 9.48283 11 9.49126 11 9.49969C11 9.50812 11 9.51654 11 9.52495C11 9.53337 11 9.54178 11 9.55019C11 9.5586 11 9.567 11 9.5754C11 9.5838 11 9.59219 11 9.60058C11 9.60897 11 9.61735 11 9.62573C11 9.63411 11 9.64248 11 9.65085C11 9.65922 11 9.66759 11 9.67595C11 9.68431 11 9.69266 11 9.70101C11 9.70936 11 9.7177 11 9.72604C11 9.73438 11 9.74272 11 9.75105C11 9.75937 11 9.7677 11 9.77602C11 9.78434 11 9.79265 11 9.80096C11 9.80927 11 9.81757 11 9.82587C11 9.83417 11 9.84246 11 9.85075C11 9.85903 11 9.86731 11 9.87559C11 9.88387 11 9.89214 11 9.9004C11 9.90867 11 9.91693 11 9.92518C11 9.93344 11 9.94168 11 9.94993C11 9.95817 11 9.96641 11 9.97464C11 9.98287 11 9.9911 11 9.99932C11 10.0075 11 10.0158 11 10.024C11 10.0322 11 10.0404 11 10.0486C11 10.0568 11 10.065 11 10.0731C11 10.0813 11 10.0895 11 10.0977C11 10.1059 11 10.114 11 10.1222C11 10.1303 11 10.1385 11 10.1466C11 10.1548 11 10.1629 11 10.1711C11 10.1792 11 10.1873 11 10.1955C11 10.2036 11 10.2117 11 10.2198C11 10.2279 11 10.236 11 10.2441C11 10.2522 11 10.2603 11 10.2684C11 10.2765 11 10.2846 11 10.2926C11 10.3007 11 10.3088 11 10.3168C11 10.3249 11 10.333 11 10.341C11 10.3491 11 10.3571 11 10.3651C11 10.3732 11 10.3812 11 10.3892C11 10.3972 11 10.4052 11 10.4132C11 10.4213 11 10.4293 11 10.4372C11 10.4452 11 10.4532 11 10.4612C11 10.4692 11 10.4772 11 10.4851C11 10.4931 11 10.501 11 10.509C11 10.5169 11 10.5249 11 10.5328C11 10.5408 11 10.5487 11 10.5566C11 10.5645 11 10.5725 11 10.5804C11 10.5883 11 10.5962 11 10.6041C11 10.612 11 10.6198 11 10.6277C11 10.6356 11 10.6435 11 10.6513C11 10.6592 11 10.6671 11 10.6749C11 10.6828 11 10.6906 11 10.6984C11 10.7063 11 10.7141 11 10.7219C11 10.7297 11 10.7375 11 10.7453C11 10.7531 11 10.7609 11 10.7687C11 10.7765 11 10.7843 11 10.7921C11 10.7998 11 10.8076 11 10.8154C11 10.8231 11 10.8309 11 10.8386C11 10.8464 11 10.8541 11 10.8618C11 10.8695 11 10.8773 11 10.885C11 10.8927 11 10.9004 11 10.9081C11 10.9158 11 10.9235 11 10.9311C11 10.9388 11 10.9465 11 10.9541C11 10.9618 11 10.9694 11 10.9771C11 10.9847 11 10.9924 11 11H13C13 10.9924 13 10.9847 13 10.9771C13 10.9694 13 10.9618 13 10.9541C13 10.9465 13 10.9388 13 10.9311C13 10.9235 13 10.9158 13 10.9081C13 10.9004 13 10.8927 13 10.885C13 10.8773 13 10.8695 13 10.8618C13 10.8541 13 10.8464 13 10.8386C13 10.8309 13 10.8231 13 10.8154C13 10.8076 13 10.7998 13 10.7921C13 10.7843 13 10.7765 13 10.7687C13 10.7609 13 10.7531 13 10.7453C13 10.7375 13 10.7297 13 10.7219C13 10.7141 13 10.7063 13 10.6984C13 10.6906 13 10.6828 13 10.6749C13 10.6671 13 10.6592 13 10.6513C13 10.6435 13 10.6356 13 10.6277C13 10.6198 13 10.612 13 10.6041C13 10.5962 13 10.5883 13 10.5804C13 10.5725 13 10.5645 13 10.5566C13 10.5487 13 10.5408 13 10.5328C13 10.5249 13 10.5169 13 10.509C13 10.501 13 10.4931 13 10.4851C13 10.4772 13 10.4692 13 10.4612C13 10.4532 13 10.4452 13 10.4372C13 10.4293 13 10.4213 13 10.4132C13 10.4052 13 10.3972 13 10.3892C13 10.3812 13 10.3732 13 10.3651C13 10.3571 13 10.3491 13 10.341C13 10.333 13 10.3249 13 10.3168C13 10.3088 13 10.3007 13 10.2926C13 10.2846 13 10.2765 13 10.2684C13 10.2603 13 10.2522 13 10.2441C13 10.236 13 10.2279 13 10.2198C13 10.2117 13 10.2036 13 10.1955C13 10.1873 13 10.1792 13 10.1711C13 10.1629 13 10.1548 13 10.1466C13 10.1385 13 10.1303 13 10.1222C13 10.114 13 10.1059 13 10.0977C13 10.0895 13 10.0813 13 10.0731C13 10.065 13 10.0568 13 10.0486C13 10.0404 13 10.0322 13 10.024C13 10.0158 13 10.0075 13 9.99932C13 9.9911 13 9.98287 13 9.97464C13 9.96641 13 9.95817 13 9.94993C13 9.94168 13 9.93344 13 9.92518C13 9.91693 13 9.90867 13 9.9004C13 9.89214 13 9.88387 13 9.87559C13 9.86731 13 9.85903 13 9.85075C13 9.84246 13 9.83417 13 9.82587C13 9.81757 13 9.80927 13 9.80096C13 9.79265 13 9.78434 13 9.77602C13 9.7677 13 9.75937 13 9.75105C13 9.74272 13 9.73438 13 9.72604C13 9.7177 13 9.70936 13 9.70101C13 9.69266 13 9.68431 13 9.67595C13 9.66759 13 9.65922 13 9.65085C13 9.64248 13 9.63411 13 9.62573C13 9.61735 13 9.60897 13 9.60058C13 9.59219 13 9.5838 13 9.5754C13 9.567 13 9.5586 13 9.55019C13 9.54178 13 9.53337 13 9.52495C13 9.51654 13 9.50812 13 9.49969C13 9.49126 13 9.48283 13 9.4744C13 9.46596 13 9.45752 13 9.44908C13 9.44064 13 9.43219 13 9.42374C13 9.41528 13 9.40683 13 9.39837C13 9.3899 13 9.38144 13 9.37297C13 9.3645 13 9.35603 13 9.34755C13 9.33907 13 9.33059 13 9.3221C13 9.31362 13 9.30513 13 9.29663C13 9.28814 13 9.27964 13 9.27114C13 9.26263 13 9.25413 13 9.24562C13 9.23711 13 9.22859 13 9.22008C13 9.21156 13 9.20304 13 9.19451C13 9.18598 13 9.17746 13 9.16892C13 9.16039 13 9.15185 13 9.14331C13 9.13477 13 9.12623 13 9.11768C13 9.10913 13 9.10058 13 9.09203C13 9.08347 13 9.07491 13 9.06635C13 9.05779 13 9.04922 13 9.04065C13 9.03209 13 9.02351 13 9.01494C13 9.00636 13 8.99778 13 8.9892C13 8.98062 13 8.97203 13 8.96345C13 8.95486 13 8.94626 13 8.93767C13 8.92907 13 8.92048 13 8.91187C13 8.90327 13 8.89467 13 8.88606C13 8.87745 13 8.86884 13 8.86023C13 8.85162 13 8.843 13 8.83438C13 8.82576 13 8.81714 13 8.80851C13 8.79989 13 8.79126 13 8.78263C13 8.774 13 8.76536 13 8.75673C13 8.74809 13 8.73945 13 8.73081C13 8.72217 13 8.71352 13 8.70488C13 8.69623 13 8.68758 13 8.67893C13 8.67028 13 8.66162 13 8.65296C13 8.64431 13 8.63565 13 8.62698C13 8.61832 13 8.60966 13 8.60099C13 8.59232 13 8.58365 13 8.57498C13 8.56631 13 8.55764 13 8.54896C13 8.54028 13 8.53161 13 8.52292C13 8.51424 13 8.50556 13 8.49688C13 8.48819 13 8.4795 13 8.47081C13 8.46213 13 8.45343 13 8.44474C13 8.43605 13 8.42735 13 8.41866C13 8.40996 13 8.40126 13 8.39256C13 8.38386 13 8.37515 13 8.36645C13 8.35775 13 8.34904 13 8.34033C13 8.33162 13 8.32291 13 8.3142C13 8.30549 13 8.29678 13 8.28806C13 8.27935 13 8.27063 13 8.26191C13 8.25319 13 8.24447 13 8.23575C13 8.22703 13 8.21831 13 8.20959C13 8.20086 13 8.19214 13 8.18341C13 8.17468 13 8.16595 13 8.15722C13 8.14849 13 8.13976 13 8.13103C13 8.1223 13 8.11357 13 8.10483C13 8.0961 13 8.08736 13 8.07862C13 8.06989 13 8.06115 13 8.05241C13 8.04367 13 8.03493 13 8.02619C13 8.01745 13 8.00871 13 7.99996C13 7.99122 13 7.98247 13 7.97373C13 7.96498 13 7.95624 13 7.94749C13 7.93875 13 7.93 13 7.92125C13 7.9125 13 7.90375 13 7.895C13 7.88625 13 7.8775 13 7.86875C13 7.86 13 7.85125 13 7.8425C13 7.83374 13 7.82499 13 7.81624C13 7.80748 13 7.79873 13 7.78998C13 7.78122 13 7.77247 13 7.76371C13 7.75496 13 7.7462 13 7.73744C13 7.72869 13 7.71993 13 7.71118C13 7.70242 13 7.69366 13 7.68491C13 7.67615 13 7.66739 13 7.65863C13 7.64988 13 7.64112 13 7.63236C13 7.6236 13 7.61485 13 7.60609C13 7.59733 13 7.58857 13 7.57982C13 7.57106 13 7.5623 13 7.55354C13 7.54479 13 7.53603 13 7.52727C13 7.51851 13 7.50976 13 7.501C13 7.49224 13 7.48349 13 7.47473C13 7.46597 13 7.45722 13 7.44846C13 7.43971 13 7.43095 13 7.4222C13 7.41344 13 7.40469 13 7.39593C13 7.38718 13 7.37843 13 7.36967C13 7.36092 13 7.35217 13 7.34341C13 7.33466 13 7.32591 13 7.31716C13 7.30841 13 7.29966 13 7.29091C13 7.28216 13 7.27341 13 7.26467C13 7.25592 13 7.24717 13 7.23842C13 7.22968 13 7.22093 13 7.21219C13 7.20344 13 7.1947 13 7.18596C13 7.17722 13 7.16847 13 7.15973C13 7.15099 13 7.14225 13 7.13352C13 7.12478 13 7.11604 13 7.1073C13 7.09857 13 7.08983 13 7.0811C13 7.07237 13 7.06363 13 7.0549C13 7.04617 13 7.03744 13 7.02871C13 7.01998 13 7.01126 13 7.00253C13 6.9938 13 6.98508 13 6.97636C13 6.96763 13 6.95891 13 6.95019C13 6.94147 13 6.93275 13 6.92404C13 6.91532 13 6.9066 13 6.89789C13 6.88918 13 6.88046 13 6.87175C13 6.86304 13 6.85433 13 6.84563C13 6.83692 13 6.82822 13 6.81951C13 6.81081 13 6.80211 13 6.79341C13 6.78471 13 6.77601 13 6.76731C13 6.75862 13 6.74993 13 6.74123C13 6.73254 13 6.72385 13 6.71516C13 6.70648 13 6.69779 13 6.68911C13 6.68042 13 6.67174 13 6.66306C13 6.65439 13 6.64571 13 6.63703C13 6.62836 13 6.61969 13 6.61102C13 6.60235 13 6.59368 13 6.58501C13 6.57635 13 6.56769 13 6.55902C13 6.55036 13 6.54171 13 6.53305C13 6.52439 13 6.51574 13 6.50709C13 6.49844 13 6.48979 13 6.48115C13 6.4725 13 6.46386 13 6.45522C13 6.44658 13 6.43794 13 6.42931C13 6.42067 13 6.41204 13 6.40341C13 6.39478 13 6.38616 13 6.37754C13 6.36891 13 6.36029 13 6.35167C13 6.34306 13 6.33444 13 6.32583C13 6.31722 13 6.30861 13 6.30001C13 6.2914 13 6.2828 13 6.2742C13 6.2656 13 6.257 13 6.24841C13 6.23982 13 6.23123 13 6.22264C13 6.21406 13 6.20547 13 6.19689C13 6.18831 13 6.17974 13 6.17116C13 6.16259 13 6.15402 13 6.14545C13 6.13689 13 6.12833 13 6.11977C13 6.11121 13 6.10265 13 6.0941C13 6.08555 13 6.077 13 6.06845C13 6.05991 13 6.05137 13 6.04283C13 6.03429 13 6.02576 13 6.01723C13 6.0087 13 6.00017 13 5.99165C13 5.98312 13 5.9746 13 5.96609C13 5.95757 13 5.94906 13 5.94055C13 5.93205 13 5.92354 13 5.91504C13 5.90655 13 5.89805 13 5.88956C13 5.88107 13 5.87258 13 5.8641C13 5.85561 13 5.84713 13 5.83866C13 5.83018 13 5.82171 13 5.81325C13 5.80478 13 5.79632 13 5.78786C13 5.7794 13 5.77095 13 5.7625C13 5.75405 13 5.7456 13 5.73716C13 5.72872 13 5.72029 13 5.71186C13 5.70342 13 5.695 13 5.68657C13 5.67815 13 5.66973 13 5.66132C13 5.65291 13 5.6445 13 5.63609C13 5.62769 13 5.61929 13 5.6109C13 5.6025 13 5.59411 13 5.58573C13 5.57734 13 5.56896 13 5.56058C13 5.55221 13 5.54384 13 5.53547C13 5.52711 13 5.51875 13 5.51039C13 5.50203 13 5.49368 13 5.48534C13 5.47699 13 5.46865 13 5.46031C13 5.45198 13 5.44365 13 5.43532C13 5.427 13 5.41868 13 5.41036C13 5.40205 13 5.39374 13 5.38543C13 5.37713 13 5.36883 13 5.36053C13 5.35224 13 5.34395 13 5.33567C13 5.32739 13 5.31911 13 5.31084C13 5.30256 13 5.2943 13 5.28604C13 5.27777 13 5.26952 13 5.26127C13 5.25302 13 5.24477 13 5.23653C13 5.2283 13 5.22006 13 5.21183C13 5.20361 13 5.19539 13 5.18717C13 5.17895 13 5.17074 13 5.16254C13 5.15433 13 5.14614 13 5.13794C13 5.12975 13 5.12156 13 5.11338C13 5.1052 13 5.09703 13 5.08886C13 5.08069 13 5.07253 13 5.06437C13 5.05621 13 5.04806 13 5.03992C13 5.03177 13 5.02364 13 5.0155C13 5.00737 13 4.99925 13 4.99113C13 4.98301 13 4.97489 13 4.96679C13 4.95868 13 4.95058 13 4.94249C13 4.93439 13 4.9263 13 4.91822C13 4.91014 13 4.90207 13 4.894C13 4.88593 13 4.87787 13 4.86981C13 4.86176 13 4.85371 13 4.84567C13 4.83762 13 4.82959 13 4.82156C13 4.81353 13 4.80551 13 4.79749C13 4.78948 13 4.78147 13 4.77347C13 4.76547 13 4.75747 13 4.74949C13 4.7415 13 4.73352 13 4.72554C13 4.71757 13 4.7096 13 4.70164C13 4.69368 13 4.68573 13 4.67778C13 4.66984 13 4.6619 13 4.65397C13 4.64603 13 4.63811 13 4.63019C13 4.62228 13 4.61437 13 4.60646C13 4.59856 13 4.59066 13 4.58278C13 4.57489 13 4.56701 13 4.55913C13 4.55126 13 4.54339 13 4.53553C13 4.52768 13 4.51982 13 4.51198C13 4.50414 13 4.4963 13 4.48847C13 4.48064 13 4.47282 13 4.46501C13 4.45719 13 4.44939 13 4.44159C13 4.43379 13 4.426 13 4.41822C13 4.41044 13 4.40266 13 4.39489C13 4.38713 13 4.37937 13 4.37162C13 4.36386 13 4.35612 13 4.34839C13 4.34065 13 4.33292 13 4.3252C13 4.31748 13 4.30977 13 4.30207C13 4.29436 13 4.28667 13 4.27898C13 4.27129 13 4.26361 13 4.25594C13 4.24827 13 4.24061 13 4.23295C13 4.2253 13 4.21765 13 4.21001C13 4.20238 13 4.19475 13 4.18713C13 4.1795 13 4.17189 13 4.16429C13 4.15668 13 4.14909 13 4.1415C13 4.13391 13 4.12633 13 4.11876C13 4.11119 13 4.10363 13 4.09607C13 4.08852 13 4.08098 13 4.07344C13 4.0659 13 4.05838 13 4.05086C13 4.04334 13 4.03583 13 4.02833C13 4.02083 13 4.01333 13 4.00585C13 3.99837 13 3.99089 13 3.98343C13 3.97596 13 3.9685 13 3.96106C13 3.95361 13 3.94617 13 3.93874C13 3.93131 13 3.92389 13 3.91648C13 3.90907 13 3.90166 13 3.89427C13 3.88688 13 3.87949 13 3.87212C13 3.86474 13 3.85738 13 3.85002C13 3.84267 13 3.83532 13 3.82798C13 3.82064 13 3.81332 13 3.806C13 3.79868 13 3.79137 13 3.78407C13 3.77677 13 3.76948 13 3.7622C13 3.75492 13 3.74765 13 3.74038C13 3.73312 13 3.72587 13 3.71863C13 3.71138 13 3.70415 13 3.69693C13 3.68971 13 3.68249 13 3.67529C13 3.66809 13 3.66089 13 3.65371C13 3.64652 13 3.63935 13 3.63219C13 3.62502 13 3.61787 13 3.61072C13 3.60358 13 3.59644 13 3.58932C13 3.5822 13 3.57508 13 3.56798C13 3.56087 13 3.55378 13 3.5467C13 3.53961 13 3.53254 13 3.52548C13 3.51841 13 3.51136 13 3.50432C13 3.49727 13 3.49024 13 3.48322C13 3.4762 13 3.46918 13 3.46218C13 3.45518 13 3.44819 13 3.44121C13 3.43423 13 3.42726 13 3.4203C13 3.41334 13 3.40639 13 3.39945C13 3.39251 13 3.38559 13 3.37867C13 3.37175 13 3.36484 13 3.35795C13 3.35105 13 3.34417 13 3.33729C13 3.33042 13 3.32356 13 3.3167C13 3.30985 13 3.30301 13 3.29618C13 3.28935 13 3.28253 13 3.27572C13 3.26891 13 3.26211 13 3.25532C13 3.24854 13 3.24176 13 3.23499C13 3.22823 13 3.22148 13 3.21473C13 3.20799 13 3.20126 13 3.19454C13 3.18782 13 3.18111 13 3.17441C13 3.16771 13 3.16103 13 3.15435C13 3.14768 13 3.14101 13 3.13436C13 3.12771 13 3.12107 13 3.11444C13 3.10781 13 3.10119 13 3.09458C13 3.08798 13 3.08138 13 3.0748C13 3.06821 13 3.06164 13 3.05508C13 3.04852 13 3.04197 13 3.03543C13 3.0289 13 3.02237 13 3.01586C13 3.00935 13 3.00284 13 2.99635C13 2.98986 13 2.98339 13 2.97692C13 2.97045 13 2.964 13 2.95756C13 2.95111 13 2.94468 13 2.93827C13 2.93185 13 2.92544 13 2.91905C13 2.91265 13 2.90627 13 2.8999C13 2.89353 13 2.88717 13 2.88083C13 2.87448 13 2.86815 13 2.86183C13 2.8555 13 2.8492 13 2.8429C13 2.8366 13 2.83032 13 2.82405C13 2.81777 13 2.81151 13 2.80527C13 2.79902 13 2.79279 13 2.78656C13 2.78034 13 2.77413 13 2.76793C13 2.76174 13 2.75555 13 2.74938C13 2.74321 13 2.73705 13 2.7309C13 2.72476 13 2.71862 13 2.7125C13 2.70638 13 2.70027 13 2.69418C13 2.68808 13 2.682 13 2.67593C13 2.66986 13 2.6638 13 2.65776C13 2.65171 13 2.64568 13 2.63966C13 2.63365 13 2.62764 13 2.62165C13 2.61566 13 2.60968 13 2.60371C13 2.59775 13 2.59179 13 2.58586C13 2.57992 13 2.57399 13 2.56808C13 2.56216 13 2.55626 13 2.55038C13 2.54449 13 2.53862 13 2.53276C13 2.5269 13 2.52105 13 2.51522C13 2.50939 13 2.50357 13 2.49776C13 2.49195 13 2.48616 13 2.48038C13 2.4746 13 2.46884 13 2.46309C13 2.45733 13 2.4516 13 2.44587C13 2.44015 13 2.43444 13 2.42874C13 2.42304 13 2.41736 13 2.41169C13 2.40602 13 2.40036 13 2.39472C13 2.38908 13 2.38345 13 2.37784C13 2.37222 13 2.36662 13 2.36104C13 2.35545 13 2.34988 13 2.34432C13 2.33876 13 2.33322 13 2.32769C13 2.32216 13 2.31664 13 2.31114C13 2.30564 13 2.30015 13 2.29468C13 2.28921 13 2.28375 13 2.2783C13 2.27286 13 2.26743 13 2.26201C13 2.2566 13 2.25119 13 2.24581C13 2.24042 13 2.23505 13 2.22969C13 2.22433 13 2.21899 13 2.21366C13 2.20833 13 2.20301 13 2.19771C13 2.19241 13 2.18713 13 2.18186C13 2.17659 13 2.17133 13 2.16609C13 2.16085 13 2.15562 13 2.15041C13 2.1452 13 2.14 13 2.13482C13 2.12963 13 2.12447 13 2.11931C13 2.11416 13 2.10902 13 2.1039C13 2.09878 13 2.09367 13 2.08858C13 2.08349 13 2.07841 13 2.07335C13 2.06828 13 2.06324 13 2.0582C13 2.05317 13 2.04815 13 2.04315C13 2.03815 13 2.03316 13 2.02819C13 2.02322 13 2.01827 13 2.01333C13 2.00838 13 2.00346 13 1.99855C13 1.99364 13 1.98875 13 1.98387C13 1.97899 13 1.97412 13 1.96928C13 1.96443 13 1.9596 13 1.95478C13 1.94996 13 1.94516 13 1.94037C13 1.93559 13 1.93082 13 1.92606C13 1.92131 13 1.91657 13 1.91185C13 1.90713 13 1.90242 13 1.89773C13 1.89304 13 1.88836 13 1.8837C13 1.87904 13 1.8744 13 1.86977C13 1.86514 13 1.86053 13 1.85594C13 1.85134 13 1.84676 13 1.8422C13 1.83764 13 1.83309 13 1.82856C13 1.82403 13 1.81951 13 1.81501C13 1.81051 13 1.80603 13 1.80157C13 1.7971 13 1.79265 13 1.78822C13 1.78378 13 1.77936 13 1.77496C13 1.77056 13 1.76618 13 1.76181C13 1.75744 13 1.75309 13 1.74875C13 1.74442 13 1.7401 13 1.7358C13 1.7315 13 1.72721 13 1.72294C13 1.71867 13 1.71442 13 1.71019C13 1.70595 13 1.70173 13 1.69753C13 1.69333 13 1.68914 13 1.68498C13 1.68081 13 1.67666 13 1.67252C13 1.66839 13 1.66427 13 1.66017C13 1.65607 13 1.65198 13 1.64792C13 1.64385 13 1.6398 13 1.63577C13 1.63173 13 1.62772 13 1.62372C13 1.61972 13 1.61574 13 1.61178C13 1.60781 13 1.60387 13 1.59994C13 1.59601 13 1.59209 13 1.5882C13 1.5843 13 1.58043 13 1.57656C13 1.5727 13 1.56886 13 1.56504C13 1.56121 13 1.5574 13 1.55361C13 1.54982 13 1.54605 13 1.54229C13 1.53854 13 1.5348 13 1.53108C13 1.52736 13 1.52366 13 1.51997C13 1.51629 13 1.51262 13 1.50897C13 1.50532 13 1.50169 13 1.49807C13 1.49446 13 1.49086 13 1.48729C13 1.48371 13 1.48015 13 1.4766C13 1.47306 13 1.46954 13 1.46603C13 1.46252 13 1.45904 13 1.45557C13 1.45209 13 1.44864 13 1.44521C13 1.44177 13 1.43836 13 1.43496C13 1.43156 13 1.42818 13 1.42482C13 1.42146 13 1.41812 13 1.41479C13 1.41147 13 1.40816 13 1.40487C13 1.40158 13 1.39831 13 1.39506C13 1.39181 13 1.38858 13 1.38536C13 1.38215 13 1.37895 13 1.37578C13 1.3726 13 1.36944 13 1.3663C13 1.36316 13 1.36004 13 1.35693C13 1.35383 13 1.35075 13 1.34768C13 1.34462 13 1.34157 13 1.33854C13 1.33551 13 1.3325 13 1.32951C13 1.32652 13 1.32355 13 1.3206C13 1.31765 13 1.31471 13 1.3118C13 1.30888 13 1.30599 13 1.30311C13 1.30024 13 1.29738 13 1.29454C13 1.2917 13 1.28888 13 1.28608C13 1.28328 13 1.2805 13 1.27774C13 1.27498 13 1.27223 13 1.26951C13 1.26679 13 1.26408 13 1.2614C13 1.25872 13 1.25605 13 1.2534C13 1.25076 13 1.24813 13 1.24553C13 1.24292 13 1.24033 13 1.23776C13 1.2352 13 1.23265 13 1.23012C13 1.22759 13 1.22508 13 1.22259C13 1.2201 13 1.21763 13 1.21518C13 1.21273 13 1.2103 13 1.20789C13 1.20548 13 1.20309 13 1.20072C13 1.19835 13 1.196 13 1.19367C13 1.19134 13 1.18903 13 1.18674C13 1.18444 13 1.18217 13 1.17992C13 1.17767 13 1.17544 13 1.17323C13 1.17102 13 1.16883 13 1.16666C13 1.16449 13 1.16234 13 1.16021C13 1.15808 13 1.15597 13 1.15388C13 1.15179 13 1.14972 13 1.14767C13 1.14562 13 1.14359 13 1.14158C13 1.13957 13 1.13758 13 1.13562C13 1.13365 13 1.1317 13 1.12978C13 1.12785 13 1.12594 13 1.12406C13 1.12217 13 1.12031 13 1.11846C13 1.11662 13 1.1148 13 1.11299C13 1.11119 13 1.10941 13 1.10765C13 1.10589 13 1.10415 13 1.10243C13 1.10071 13 1.09901 13 1.09733C13 1.09565 13 1.094 13 1.09236C13 1.09072 13 1.08911 13 1.08751C13 1.08592 13 1.08435 13 1.0828C13 1.08124 13 1.07971 13 1.0782C13 1.07669 13 1.07521 13 1.07374C13 1.07227 13 1.07083 13 1.0694C13 1.06798 13 1.06657 13 1.06519C13 1.06381 13 1.06245 13 1.06111C13 1.05977 13 1.05845 13 1.05715C13 1.05586 13 1.05458 13 1.05333C13 1.05207 13 1.05084 13 1.04963C13 1.04842 13 1.04723 13 1.04607C13 1.0449 13 1.04375 13 1.04263C13 1.0415 13 1.0404 13 1.03932C13 1.03824 13 1.03718 13 1.03615C13 1.03511 13 1.03409 13 1.0331C13 1.03211 13 1.03114 13 1.03019C13 1.02924 13 1.02831 13 1.02741C13 1.0265 13 1.02562 13 1.02476C13 1.02389 13 1.02306 13 1.02224C13 1.02142 13 1.02063 13 1.01985C13 1.01908 13 1.01833 13 1.0176C13 1.01687 13 1.01617 13 1.01549C13 1.0148 13 1.01414 13 1.0135C13 1.01286 13 1.01225 13 1.01165C13 1.01106 13 1.01049 13 1.00994C13 1.00939 13 1.00886 13 1.00836C13 1.00785 13 1.00737 13 1.00691C13 1.00645 13 1.00602 13 1.0056C13 1.00519 13 1.0048 13 1.00443C13 1.00406 13 1.00372 13 1.0034C13 1.00307 13 1.00277 13 1.0025C13 1.00222 13 1.00197 13 1.00174C13 1.00151 13 1.0013 13 1.00111C13 1.00093 13 1.00077 13 1.00063C13 1.00049 13 1.00037 13 1.00028C13 1.00019 13 1.00012 13 1.00007C13 1.00002 13 1 12 1Z" fill="currentColor"/>
</svg>
