<svg xmlns="http://www.w3.org/2000/svg" width="169" height="194" viewBox="0 0 169 194" fill="none">
  <path d="M84.5 194C131.168 194 169 165.01 169 129.25C169 93.4896 131.168 64.5 84.5 64.5C37.8319 64.5 0 93.4896 0 129.25C0 165.01 37.8319 194 84.5 194Z" fill="#EDEDED"/>
  <path d="M110.975 156.815L73.3252 135.07L116.36 110.225L154.015 131.965L110.975 156.815Z" fill="#E0E0E0"/>
  <path d="M8.45508 150.09L57.0151 178.125L97.7451 154.615L49.1851 126.58L8.45508 150.09Z" fill="#E0E0E0"/>
  <path d="M150.95 44.045L123.145 28C122.93 27.8457 122.678 27.7509 122.414 27.7255C122.151 27.7 121.885 27.7447 121.645 27.855L119.645 29.01C119.425 29.1631 119.25 29.3723 119.138 29.6159C119.027 29.8595 118.982 30.1285 119.01 30.395V106.5C119.051 107.242 119.266 107.963 119.638 108.606C120.009 109.249 120.528 109.795 121.15 110.2L148.95 126.225C149.164 126.38 149.416 126.476 149.68 126.502C149.943 126.528 150.209 126.485 150.45 126.375L152.45 125.215C152.667 125.061 152.84 124.852 152.949 124.61C153.059 124.367 153.103 124.1 153.075 123.835V47.745C153.036 47.0047 152.824 46.284 152.454 45.6412C152.085 44.9984 151.57 44.4515 150.95 44.045Z" fill="#263238"/>
  <path d="M125 107.805L123 108.96V115.29C123.01 115.475 123.064 115.656 123.157 115.816C123.25 115.977 123.379 116.114 123.535 116.215L124.47 116.755C124.636 116.839 124.819 116.883 125.005 116.883C125.191 116.883 125.374 116.839 125.54 116.755L126.475 116.215C126.807 116 127.064 115.687 127.21 115.32L129.015 110.12L125 107.805Z" fill="#263238"/>
  <path d="M123 115.29C123.01 115.475 123.064 115.656 123.157 115.816C123.25 115.977 123.379 116.114 123.535 116.215L124.47 116.755C124.535 116.794 124.607 116.818 124.682 116.825C124.758 116.832 124.833 116.822 124.904 116.796C124.975 116.769 125.039 116.727 125.091 116.672C125.143 116.618 125.182 116.552 125.205 116.48L127 111.275L123 108.96V115.29Z" fill="#37474F"/>
  <path d="M145.06 119.35L143.06 120.51V126.835C143.069 127.021 143.122 127.202 143.214 127.363C143.306 127.525 143.434 127.662 143.59 127.765L144.53 128.305C144.695 128.389 144.877 128.432 145.062 128.432C145.247 128.432 145.43 128.389 145.595 128.305L146.535 127.765C146.867 127.55 147.124 127.237 147.27 126.87L149.07 121.665L145.06 119.35Z" fill="#263238"/>
  <path d="M143.06 126.835C143.069 127.021 143.122 127.202 143.214 127.363C143.306 127.525 143.434 127.662 143.59 127.765L144.53 128.305C144.594 128.344 144.667 128.368 144.742 128.375C144.817 128.382 144.893 128.372 144.964 128.346C145.034 128.319 145.098 128.277 145.15 128.222C145.202 128.168 145.242 128.102 145.265 128.03L147.07 122.825L143.07 120.51L143.06 126.835Z" fill="#37474F"/>
  <path d="M121.28 29.2151L149.08 45.2151C149.702 45.6213 150.221 46.1684 150.592 46.8121C150.964 47.4557 151.179 48.1779 151.22 48.9201V125.025C151.273 125.292 151.241 125.57 151.128 125.818C151.016 126.066 150.828 126.272 150.592 126.409C150.356 126.545 150.083 126.604 149.812 126.577C149.541 126.55 149.285 126.44 149.08 126.26L121.28 110.23C120.658 109.825 120.141 109.278 119.77 108.635C119.399 107.993 119.185 107.271 119.145 106.53V30.4451C119.091 30.1782 119.123 29.9013 119.235 29.6534C119.348 29.4055 119.535 29.1991 119.771 29.0632C120.006 28.9274 120.279 28.8689 120.55 28.8962C120.821 28.9234 121.076 29.035 121.28 29.2151Z" fill="#37474F"/>
  <path d="M80.9102 133.24L110.98 150.6L153.08 126.295L151.075 125.135L121.005 107.775L80.9102 130.925V133.24Z" fill="#455A64"/>
  <path d="M110.98 150.6V148.285L153.08 123.98V126.295L110.98 150.6Z" fill="#263238"/>
  <path d="M111.17 147.23L110.865 147.025C116.2 138.95 116.165 125 115.73 121.5C115.695 121.265 115.67 121.12 115.665 121.065L116.03 121.005C116.03 121.115 116.07 121.245 116.09 121.4C116.48 123.875 118.685 137.32 121.295 141.4L120.985 141.6C118.92 138.395 117.155 129.745 116.27 124.755C116.325 130.42 115.5 140.715 111.17 147.23Z" fill="#FAFAFA"/>
  <path d="M128.73 134.9C128.275 134.765 117.645 131.545 116.665 126.855L117.03 126.78C117.96 131.255 128.725 134.515 128.835 134.55L128.73 134.9Z" fill="#FAFAFA"/>
  <path d="M118 133L117.73 131.855C117.693 131.645 117.586 131.453 117.426 131.311C117.266 131.17 117.063 131.086 116.85 131.075C116.674 131.049 116.494 131.078 116.335 131.158C116.176 131.237 116.045 131.364 115.96 131.52L115.615 131.375C115.73 131.146 115.914 130.959 116.141 130.839C116.367 130.719 116.625 130.672 116.88 130.705C117.064 130.717 117.243 130.767 117.406 130.853C117.569 130.94 117.712 131.059 117.825 131.205C117.885 130.731 118.127 130.299 118.5 130C118.641 129.926 118.799 129.89 118.959 129.895C119.118 129.901 119.274 129.947 119.41 130.03L119.245 130.36C119.161 130.306 119.066 130.275 118.967 130.269C118.868 130.263 118.769 130.282 118.68 130.325C118.255 130.565 118.09 131.49 118.065 131.825L118 133Z" fill="#FAFAFA"/>
  <path d="M119.045 136.815L118.715 135.775C118.34 134.6 117.715 133.925 116.975 133.88C116.665 133.874 116.361 133.958 116.099 134.123C115.837 134.287 115.629 134.524 115.5 134.805L115.165 134.645C115.323 134.294 115.582 133.998 115.908 133.794C116.235 133.59 116.615 133.488 117 133.5C117.445 133.525 118.21 133.765 118.78 134.925C118.905 134.01 119.28 132.54 120.245 131.925C120.591 131.735 120.98 131.638 121.375 131.642C121.77 131.647 122.157 131.753 122.5 131.95L122.345 132.285C122.058 132.116 121.733 132.023 121.4 132.015C121.068 132.007 120.739 132.084 120.445 132.24C119.16 133.04 119.075 135.685 119.075 135.715L119.045 136.815Z" fill="#FAFAFA"/>
  <path d="M114.53 139.355L114.2 139.185C114.94 137.76 116.565 136.735 117.975 136.805C118.274 136.808 118.568 136.879 118.837 137.011C119.105 137.144 119.34 137.335 119.525 137.57C119.66 136.85 119.94 136.166 120.348 135.558C120.755 134.949 121.281 134.43 121.895 134.03C122.553 133.593 123.313 133.332 124.101 133.273C124.889 133.215 125.679 133.36 126.395 133.695L126.25 134.03C125.59 133.725 124.864 133.593 124.139 133.647C123.415 133.701 122.716 133.94 122.11 134.34C121.461 134.76 120.92 135.326 120.529 135.993C120.139 136.66 119.909 137.409 119.86 138.18V139.125L119.51 138.245C119.394 137.932 119.185 137.662 118.912 137.471C118.638 137.28 118.313 137.176 117.98 137.175C116.685 137.11 115.21 138.05 114.53 139.355Z" fill="#FAFAFA"/>
  <path d="M112.5 144.875L112.175 144.695C112.625 143.875 115.02 139.755 117.855 139.01C118.255 138.895 118.675 138.867 119.087 138.926C119.499 138.986 119.893 139.132 120.245 139.355L120.055 139.67C119.745 139.474 119.397 139.346 119.035 139.293C118.672 139.241 118.302 139.265 117.95 139.365C115.87 139.915 113.72 142.675 112.5 144.875Z" fill="#FAFAFA"/>
  <path d="M149.07 100.83V103.145L110.98 125.135L80.9097 107.775V105.46L119 83.47L149.07 100.83Z" fill="#263238"/>
  <path d="M149.07 100.83L110.98 122.82L80.9097 105.46L119 83.47L149.07 100.83Z" fill="#455A64"/>
  <path d="M149.07 75.3699V77.6799L110.98 99.6749L80.9097 82.3099V79.9999L119 58.0049L149.07 75.3699Z" fill="#263238"/>
  <path d="M149.07 75.3699L110.98 97.3599L80.9097 79.9999L119 58.0049L149.07 75.3699Z" fill="#455A64"/>
  <path d="M110.85 67.1648L83.0504 51.1398C82.8358 50.9846 82.584 50.889 82.3206 50.8627C82.0571 50.8363 81.7914 50.8802 81.5504 50.9898C81.1904 51.1948 79.9104 51.9398 79.5504 52.1448C79.3314 52.2985 79.1575 52.508 79.0467 52.7515C78.936 52.995 78.8923 53.2637 78.9204 53.5298V129.615C78.9612 130.356 79.1763 131.078 79.5481 131.721C79.9199 132.363 80.438 132.91 81.0604 133.315L108.86 149.345C109.075 149.5 109.327 149.596 109.59 149.622C109.854 149.648 110.119 149.604 110.36 149.495C110.72 149.285 112.01 148.545 112.36 148.33C112.58 148.178 112.756 147.97 112.868 147.727C112.981 147.484 113.026 147.216 113 146.95V70.8698C112.959 70.1265 112.743 69.4035 112.369 68.7596C111.996 68.1158 111.475 67.5693 110.85 67.1648Z" fill="#263238"/>
  <path opacity="0.2" d="M110.98 78.8449L112.99 77.6849V70.7349L110.975 71.8949L110.98 78.8449Z" fill="black"/>
  <path opacity="0.2" d="M151.08 55.6948L153.09 54.5398V47.5898L151.075 48.7498L151.08 55.6948Z" fill="black"/>
  <path d="M84.9204 130.925L82.9204 132.08V138.41C82.9305 138.595 82.9842 138.776 83.0772 138.936C83.1702 139.097 83.2998 139.234 83.4554 139.335L84.3904 139.875C84.5563 139.959 84.7395 140.002 84.9254 140.002C85.1113 140.002 85.2946 139.959 85.4604 139.875L86.3954 139.335C86.7263 139.121 86.9831 138.81 87.1304 138.445L88.9354 133.24L84.9204 130.925Z" fill="#263238"/>
  <path d="M82.915 138.41C82.9252 138.595 82.9789 138.776 83.0718 138.936C83.1648 139.097 83.2944 139.234 83.45 139.335L84.385 139.875C84.4496 139.914 84.5223 139.938 84.5974 139.945C84.6726 139.952 84.7484 139.942 84.8192 139.915C84.8899 139.889 84.9537 139.847 85.0058 139.792C85.0579 139.737 85.097 139.672 85.12 139.6L86.925 134.395L82.925 132.08L82.915 138.41Z" fill="#37474F"/>
  <path d="M104.965 142.5L102.965 143.655V149.985C102.974 150.17 103.027 150.35 103.119 150.511C103.212 150.672 103.34 150.808 103.495 150.91L104.435 151.45C104.6 151.534 104.783 151.577 104.968 151.577C105.153 151.577 105.335 151.534 105.5 151.45L106.44 150.91C106.77 150.695 107.026 150.384 107.175 150.02L108.975 144.815L104.965 142.5Z" fill="#263238"/>
  <path d="M102.965 149.96C102.974 150.145 103.027 150.325 103.119 150.486C103.212 150.647 103.34 150.783 103.495 150.885L104.435 151.425C104.5 151.464 104.573 151.488 104.648 151.495C104.723 151.502 104.799 151.492 104.869 151.465C104.94 151.439 105.004 151.397 105.056 151.342C105.108 151.288 105.147 151.222 105.17 151.15L106.97 145.945L102.97 143.63L102.965 149.96Z" fill="#37474F"/>
  <path d="M81.0402 52.2998L108.845 68.3248C109.467 68.7313 109.984 69.2786 110.355 69.9222C110.726 70.5659 110.94 71.2879 110.98 72.0298V150.6C110.98 150.6 109.435 149.685 108.845 149.345L81.0452 133.315C80.4228 132.91 79.9047 132.363 79.5329 131.721C79.1611 131.078 78.9461 130.356 78.9052 129.615V53.5298C78.8518 53.2629 78.8834 52.986 78.9956 52.7381C79.1079 52.4902 79.2951 52.2838 79.5309 52.1479C79.7667 52.0121 80.0392 51.9537 80.31 51.9809C80.5808 52.0081 80.8362 52.1197 81.0402 52.2998Z" fill="#37474F"/>
  <path opacity="0.2" d="M108.845 68.3248L81.0402 52.2998C80.8362 52.1197 80.5808 52.0081 80.31 51.9809C80.0392 51.9537 79.7667 52.0121 79.5309 52.1479C79.2951 52.2838 79.1079 52.4902 78.9956 52.7381C78.8834 52.986 78.8518 53.2629 78.9052 53.5298V60.3248L110.98 78.8248V72.0298C110.94 71.2879 110.726 70.5659 110.355 69.9222C109.984 69.2786 109.467 68.7313 108.845 68.3248Z" fill="black"/>
  <path d="M147.065 75.5549C147.016 75.5536 146.97 75.5337 146.935 75.4993C146.901 75.4649 146.881 75.4186 146.88 75.3699V52.5399L125.105 65.1099C125.084 65.1231 125.061 65.132 125.037 65.1359C125.013 65.1397 124.989 65.1386 124.965 65.1325C124.942 65.1264 124.92 65.1154 124.901 65.1003C124.882 65.0853 124.866 65.0664 124.855 65.0449C124.842 65.0239 124.834 65.0006 124.83 64.9764C124.827 64.9522 124.828 64.9275 124.834 64.9038C124.84 64.8801 124.851 64.8578 124.865 64.8383C124.88 64.8187 124.898 64.8023 124.92 64.7899L147 52.0599C147.027 52.0426 147.059 52.0334 147.092 52.0334C147.125 52.0334 147.157 52.0426 147.185 52.0599C147.212 52.0764 147.235 52.0999 147.251 52.1279C147.267 52.156 147.275 52.1877 147.275 52.2199V75.3699C147.275 75.3964 147.269 75.4227 147.259 75.447C147.248 75.4712 147.232 75.4929 147.212 75.5104C147.192 75.528 147.169 75.541 147.143 75.5487C147.118 75.5564 147.091 75.5585 147.065 75.5549Z" fill="#FAFAFA"/>
  <path d="M143.055 69.7651H143C142.952 69.7543 142.911 69.7252 142.885 69.6839C142.858 69.6427 142.85 69.5928 142.86 69.5451L146.59 53.3901L139.19 66.2051C139.178 66.2264 139.163 66.2453 139.144 66.2604C139.125 66.2756 139.103 66.2868 139.08 66.2933C139.057 66.2999 139.032 66.3016 139.008 66.2985C138.984 66.2953 138.961 66.2874 138.94 66.2751C138.918 66.2631 138.899 66.247 138.884 66.2276C138.869 66.2083 138.858 66.186 138.851 66.1623C138.845 66.1385 138.843 66.1137 138.846 66.0893C138.849 66.0649 138.858 66.0413 138.87 66.0201L146.87 52.1301C146.893 52.0919 146.928 52.063 146.97 52.0484C147.012 52.0338 147.058 52.0344 147.1 52.0501C147.141 52.0668 147.175 52.0977 147.195 52.1372C147.215 52.1766 147.22 52.222 147.21 52.2651L143.21 69.6301C143.201 69.6657 143.181 69.6977 143.154 69.7219C143.126 69.746 143.091 69.7611 143.055 69.7651Z" fill="#FAFAFA"/>
  <path d="M135.04 63.9999C135.014 64 134.989 63.9947 134.966 63.9844C134.943 63.974 134.922 63.9589 134.905 63.9399C134.871 63.9053 134.852 63.8586 134.852 63.8099C134.852 63.7612 134.871 63.7145 134.905 63.6799L146.935 52.1049C146.97 52.0707 147.016 52.0515 147.065 52.0515C147.114 52.0515 147.16 52.0707 147.195 52.1049C147.229 52.1404 147.249 52.1879 147.249 52.2374C147.249 52.2869 147.229 52.3344 147.195 52.3699L135.165 63.9399C135.149 63.9577 135.13 63.9721 135.108 63.9824C135.087 63.9927 135.064 63.9986 135.04 63.9999Z" fill="#FAFAFA"/>
  <path d="M147.065 71.8599C147.016 71.8587 146.97 71.8388 146.935 71.8043C146.901 71.7699 146.881 71.7236 146.88 71.6749C146.88 68.6449 143.5 68.4399 143.355 68.4349C143.327 68.433 143.301 68.4253 143.277 68.4123C143.253 68.3994 143.231 68.3816 143.215 68.3599C143.199 68.3387 143.188 68.3142 143.183 68.2883C143.178 68.2624 143.178 68.2356 143.185 68.2099C143.308 67.5909 143.266 66.9504 143.063 66.3527C142.861 65.755 142.504 65.2212 142.03 64.8049C141.856 64.6319 141.648 64.4979 141.419 64.4116C141.189 64.3254 140.944 64.2891 140.7 64.3049C140.569 64.327 140.445 64.3769 140.336 64.451C140.226 64.5252 140.134 64.622 140.065 64.7349C140.044 64.7714 140.011 64.7997 139.972 64.8152C139.933 64.8306 139.89 64.8323 139.85 64.8199C139.81 64.8076 139.775 64.7821 139.752 64.7476C139.728 64.7131 139.717 64.6716 139.72 64.6299C139.72 64.5149 139.925 61.8199 137.555 61.5549C137.524 61.5512 137.495 61.5402 137.47 61.5228C137.445 61.5053 137.424 61.4821 137.41 61.4549C137.396 61.4287 137.389 61.3995 137.389 61.3699C137.389 61.3404 137.396 61.3112 137.41 61.2849C137.41 61.2849 138.46 59.3199 138.055 58.3549C138.008 58.2416 137.935 58.1409 137.842 58.061C137.749 57.9811 137.639 57.9242 137.52 57.8949C137.496 57.8887 137.474 57.8776 137.455 57.8625C137.435 57.8473 137.419 57.8284 137.408 57.8069C137.396 57.7853 137.389 57.7616 137.386 57.7372C137.384 57.7128 137.387 57.6882 137.395 57.6649C137.41 57.6186 137.442 57.5798 137.485 57.5565C137.528 57.5332 137.578 57.5273 137.625 57.5399C137.797 57.5842 137.956 57.6684 138.09 57.7857C138.224 57.9029 138.328 58.05 138.395 58.2149C138.78 59.1299 138.13 60.6449 137.85 61.2149C139.69 61.5699 140.03 63.3049 140.08 64.1649C140.244 64.0482 140.432 63.968 140.63 63.9299C140.93 63.9008 141.233 63.9401 141.517 64.0449C141.8 64.1497 142.055 64.3172 142.265 64.5349C142.761 64.9731 143.142 65.5277 143.371 66.1491C143.601 66.7704 143.672 67.4391 143.58 68.0949C144.39 68.1999 147.25 68.7649 147.245 71.6849C147.242 71.7314 147.222 71.7752 147.189 71.8076C147.156 71.8401 147.111 71.8587 147.065 71.8599Z" fill="#FAFAFA"/>
  <path d="M147.065 66.8698C147.018 66.87 146.973 66.8526 146.939 66.8211C146.904 66.7895 146.883 66.7463 146.88 66.6998C146.8 65.6398 146.185 64.2698 145.41 63.9298C145.256 63.8612 145.086 63.8389 144.92 63.8655C144.754 63.8922 144.599 63.9666 144.475 64.0798C144.444 64.0994 144.408 64.1099 144.372 64.1099C144.336 64.1099 144.3 64.0994 144.27 64.0798C144.238 64.0624 144.212 64.0361 144.195 64.0041C144.178 63.9721 144.171 63.9358 144.175 63.8998C144.175 63.8998 144.34 62.0248 143.495 61.2498C143.311 61.0968 143.094 60.9897 142.861 60.9375C142.628 60.8853 142.386 60.8895 142.155 60.9498C142.123 60.9566 142.09 60.9546 142.059 60.944C142.028 60.9335 142.001 60.9147 141.98 60.8898C141.958 60.8647 141.944 60.8344 141.938 60.802C141.931 60.7695 141.934 60.7361 141.945 60.7048C142.115 60.2398 142.445 58.9348 142 58.4698C141.79 58.2548 141.405 58.2348 140.85 58.4148C140.812 58.4274 140.771 58.4273 140.733 58.4147C140.695 58.4021 140.662 58.3776 140.64 58.3448C140.617 58.3127 140.604 58.2743 140.604 58.2348C140.604 58.1954 140.617 58.157 140.64 58.1248C140.95 57.7348 141.715 56.5948 141.525 56.0498C141.493 55.9746 141.442 55.909 141.377 55.8598C141.312 55.8106 141.236 55.7795 141.155 55.7698C141.131 55.764 141.109 55.7535 141.089 55.739C141.069 55.7245 141.053 55.7063 141.04 55.6854C141.028 55.6645 141.019 55.6413 141.016 55.6172C141.012 55.5931 141.014 55.5685 141.02 55.5448C141.024 55.521 141.034 55.4984 141.048 55.4784C141.061 55.4585 141.079 55.4416 141.1 55.4289C141.121 55.4162 141.144 55.408 141.168 55.4047C141.192 55.4014 141.216 55.4032 141.24 55.4098C141.38 55.4303 141.512 55.4872 141.624 55.575C141.735 55.6627 141.822 55.7782 141.875 55.9098C142.08 56.5048 141.58 57.4098 141.23 57.9098C141.41 57.867 141.598 57.8687 141.777 57.9149C141.957 57.961 142.122 58.0503 142.26 58.1748C142.81 58.7448 142.545 59.9498 142.38 60.5148C142.623 60.4857 142.871 60.5085 143.105 60.5817C143.339 60.655 143.556 60.777 143.74 60.9398C144.485 61.6198 144.565 62.9398 144.555 63.5448C144.711 63.4713 144.882 63.4332 145.055 63.4332C145.227 63.4332 145.398 63.4713 145.555 63.5448C146.5 63.9598 147.155 65.4348 147.25 66.6298C147.252 66.6539 147.249 66.6781 147.241 66.701C147.234 66.724 147.222 66.7452 147.206 66.7634C147.19 66.7816 147.171 66.7964 147.149 66.8069C147.127 66.8175 147.104 66.8236 147.08 66.8248L147.065 66.8698Z" fill="#FAFAFA"/>
  <path d="M157.835 44.12C157.811 43.8545 157.717 43.6001 157.562 43.3831C157.408 43.166 157.198 42.9941 156.955 42.885L127.15 25.675C126.487 25.3397 125.755 25.165 125.012 25.165C124.27 25.165 123.537 25.3397 122.875 25.675L77.0348 52.145C76.7916 52.2541 76.5819 52.426 76.4272 52.6431C76.2726 52.8601 76.1785 53.1145 76.1548 53.38V55.695C76.1785 55.9604 76.2726 56.2148 76.4272 56.4319C76.5819 56.6489 76.7916 56.8209 77.0348 56.93L106.84 74.135C107.502 74.4725 108.234 74.6485 108.977 74.6485C109.72 74.6485 110.453 74.4725 111.115 74.135L156.955 47.67C157.198 47.5608 157.408 47.3889 157.562 47.1719C157.717 46.9548 157.811 46.7004 157.835 46.435V44.12Z" fill="#37474F"/>
  <path d="M106.84 71.82L77.0349 54.615C75.8549 53.93 75.8549 52.825 77.0349 52.145L122.875 25.675C123.538 25.3397 124.27 25.165 125.012 25.165C125.755 25.165 126.487 25.3397 127.15 25.675L156.955 42.885C158.14 43.57 158.14 44.67 156.955 45.355L111.115 71.82C110.453 72.1575 109.72 72.3335 108.977 72.3335C108.234 72.3335 107.502 72.1575 106.84 71.82Z" fill="#455A64"/>
  <path opacity="0.1" d="M151.075 51.0601L137.045 68.4251L112.99 82.3151L112.985 73.0551L151.075 51.0601Z" fill="black"/>
  <path opacity="0.1" d="M149.07 77.6802L137.045 93.8852L112.99 107.78V98.5152L149.07 77.6802Z" fill="black"/>
  <path opacity="0.1" d="M149.07 103.145L137.045 119.35L112.99 133.245V123.98L149.07 103.145Z" fill="black"/>
  <path d="M93.89 153.72L57.01 175.015L15.48 150.98L52.36 129.69L93.89 153.72Z" fill="#1BAA75"/>
  <path opacity="0.5" d="M93.89 153.72L57.01 175.015L15.48 150.98L52.36 129.69L93.89 153.72Z" fill="black"/>
  <path d="M52.36 100.825V129.69L15.48 150.98V122.12L52.36 100.825Z" fill="#1BAA75"/>
  <path opacity="0.23" d="M52.36 100.825V129.69L15.48 150.98V122.12L52.36 100.825Z" fill="black"/>
  <path d="M57.01 146.15V175.015L15.48 150.98V122.12L57.01 146.15Z" fill="#1BAA75"/>
  <path opacity="0.38" d="M57.01 146.15V175.015L15.48 150.98V122.12L57.01 146.15Z" fill="black"/>
  <path d="M93.8899 124.855V153.72L52.3599 129.69V100.825L93.8899 124.855Z" fill="#1BAA75"/>
  <path opacity="0.4" d="M93.8899 124.855V153.72L52.3599 129.69V100.825L93.8899 124.855Z" fill="black"/>
  <path d="M93.8898 153.72V124.855L57.0098 146.15V175.015L93.8898 153.72Z" fill="#1BAA75"/>
  <path opacity="0.23" d="M93.8898 153.72V124.855L57.0098 146.15V175.015L93.8898 153.72Z" fill="black"/>
  <path d="M52.3599 100.825L52.4099 84.845L93.8399 108.905L93.8899 124.855L52.3599 100.825Z" fill="#1BAA75"/>
  <path opacity="0.2" d="M52.3599 100.825L52.4099 84.845L93.8399 108.905L93.8899 124.855L52.3599 100.825Z" fill="black"/>
  <path d="M57.0098 146.15L60.4698 132.17L97.0148 111.07L93.8898 124.855L57.0098 146.15Z" fill="#1BAA75"/>
  <path opacity="0.3" d="M57.0098 146.15L60.4698 132.17L97.0148 111.07L93.8898 124.855L57.0098 146.15Z" fill="black"/>
  <path d="M15.4796 122.12L11.0796 107.62L47.9596 86.3301L52.3596 100.825L15.4796 122.12Z" fill="#1BAA75"/>
  <path opacity="0.1" d="M15.4796 122.12L11.0796 107.62L47.9596 86.3301L52.3596 100.825L15.4796 122.12Z" fill="black"/>
  <path d="M15.4798 122.12L6.7998 110.135L48.3348 134.165L57.0098 146.15L15.4798 122.12Z" fill="#1BAA75"/>
  <path opacity="0.45" d="M15.4798 122.12L6.7998 110.135L48.3348 134.165L57.0098 146.15L15.4798 122.12Z" fill="black"/>
  <g opacity="0.7">
    <path d="M67.8701 166.43C67.81 166.43 67.7522 166.406 67.7092 166.364C67.6663 166.322 67.6414 166.265 67.6401 166.205V161.125C67.6414 161.064 67.6661 161.007 67.7089 160.964C67.7518 160.921 67.8095 160.896 67.8701 160.895C67.9303 160.896 67.9875 160.921 68.0295 160.964C68.0716 161.007 68.0952 161.065 68.0951 161.125V166.205C68.0951 166.265 68.0714 166.322 68.0292 166.364C67.987 166.406 67.9298 166.43 67.8701 166.43Z" fill="white"/>
    <path d="M67.2051 162.885C67.1752 162.89 67.1449 162.89 67.1151 162.885C67.0605 162.86 67.0176 162.815 66.9953 162.759C66.973 162.703 66.9729 162.641 66.9951 162.585L67.8051 160.72L68.7051 161.76C68.7373 161.807 68.7512 161.863 68.7441 161.919C68.7371 161.976 68.7095 162.027 68.6668 162.064C68.6241 162.102 68.5692 162.122 68.5126 162.121C68.456 162.12 68.4017 162.098 68.3601 162.06L67.9351 161.56L67.4351 162.76C67.4134 162.801 67.38 162.835 67.3391 162.857C67.2981 162.88 67.2515 162.889 67.2051 162.885Z" fill="white"/>
    <path d="M69.9652 165.235C69.9051 165.234 69.8479 165.209 69.8058 165.166C69.7638 165.123 69.7402 165.065 69.7402 165.005V159.93C69.7402 159.87 69.7639 159.813 69.8061 159.771C69.8483 159.729 69.9056 159.705 69.9652 159.705C70.0249 159.705 70.0821 159.729 70.1243 159.771C70.1665 159.813 70.1902 159.87 70.1902 159.93V165C70.1909 165.03 70.1856 165.06 70.1747 165.088C70.1637 165.117 70.1473 165.142 70.1264 165.164C70.1055 165.186 70.0805 165.204 70.0529 165.216C70.0252 165.228 69.9954 165.234 69.9652 165.235Z" fill="white"/>
    <path d="M69.3001 161.69C69.2703 161.695 69.2399 161.695 69.2101 161.69C69.1827 161.678 69.1579 161.661 69.1372 161.639C69.1165 161.618 69.1003 161.592 69.0896 161.564C69.0789 161.536 69.0739 161.506 69.0748 161.477C69.0758 161.447 69.0827 161.417 69.0951 161.39L69.9001 159.5L70.8001 160.535C70.8417 160.578 70.8649 160.635 70.8649 160.695C70.8649 160.755 70.8417 160.812 70.8001 160.855C70.7792 160.876 70.7543 160.893 70.7268 160.904C70.6993 160.916 70.6699 160.922 70.6401 160.922C70.6103 160.922 70.5809 160.916 70.5534 160.904C70.5259 160.893 70.501 160.876 70.4801 160.855L70.0551 160.355L69.5551 161.555C69.5344 161.603 69.4978 161.643 69.4514 161.667C69.405 161.692 69.3516 161.7 69.3001 161.69Z" fill="white"/>
  </g>
  <g opacity="0.7">
    <path d="M61.825 169.875C61.7396 169.876 61.6552 169.856 61.58 169.815C61.4896 169.757 61.4164 169.676 61.368 169.58C61.3197 169.484 61.2979 169.377 61.305 169.27V168.645C61.3063 168.585 61.3311 168.528 61.3741 168.486C61.4171 168.444 61.4749 168.42 61.535 168.42C61.5947 168.42 61.6519 168.444 61.6941 168.486C61.7363 168.528 61.76 168.585 61.76 168.645V169.27C61.76 169.36 61.76 169.41 61.805 169.42C61.85 169.43 61.875 169.42 61.95 169.38C62.0908 169.25 62.2016 169.091 62.275 168.914C62.3484 168.737 62.3825 168.546 62.375 168.355V165.755C62.375 165.695 62.3987 165.638 62.4409 165.596C62.4831 165.554 62.5404 165.53 62.6 165.53C62.6597 165.53 62.7169 165.554 62.7591 165.596C62.8013 165.638 62.825 165.695 62.825 165.755V168.355C62.8362 168.625 62.7836 168.894 62.6716 169.14C62.5595 169.385 62.3911 169.601 62.18 169.77C62.0732 169.836 61.9506 169.872 61.825 169.875Z" fill="white"/>
    <path d="M59.4399 167.78V167.39C59.4994 166.389 59.7921 165.415 60.2947 164.547C60.7974 163.679 61.4961 162.94 62.3349 162.39C63.1549 161.92 63.9349 161.85 64.5349 162.2C64.855 162.419 65.1101 162.721 65.2737 163.073C65.4373 163.424 65.5034 163.814 65.4649 164.2V164.33L59.4399 167.78ZM63.6949 162.41C63.2946 162.428 62.9056 162.549 62.5649 162.76C61.8461 163.233 61.2374 163.855 60.7802 164.584C60.3229 165.313 60.0278 166.132 59.9149 166.985L64.9999 164.045C65.0216 163.755 64.9681 163.465 64.8446 163.202C64.7211 162.939 64.5317 162.713 64.2949 162.545C64.1102 162.448 63.9033 162.402 63.6949 162.41Z" fill="white"/>
  </g>
  <path opacity="0.7" d="M6.7998 110.135L48.3348 134.165L57.0098 146.15L47.8748 134.59L6.7998 110.135Z" fill="white"/>
  <path opacity="0.7" d="M93.8898 124.855L57.0098 146.15V175.015L57.6998 146.73L93.8898 124.855Z" fill="white"/>
  <path d="M39.7696 113.31C43.5746 112.76 47.0496 110.31 49.2696 107.23C50.3049 105.791 51.0675 104.174 51.5196 102.46C51.9997 100.857 52.0787 99.1606 51.7496 97.52C51.0646 94.775 48.5246 93.15 45.8396 92.8099C44.4772 92.6307 43.0918 92.7658 41.7896 93.205C40.4394 93.6683 39.2681 94.5425 38.4396 95.705C37.9202 96.3243 37.5934 97.0821 37.4996 97.8849C37.4916 98.1994 37.6025 98.5053 37.8101 98.7416C38.0177 98.978 38.3068 99.1273 38.6196 99.16C39.4247 99.2278 40.2293 99.0235 40.9046 98.58C41.7281 98.1182 42.4533 97.4999 43.0396 96.7599C44.2973 95.2078 45.2383 93.4242 45.8096 91.5099C46.2105 89.8674 46.2105 88.1525 45.8096 86.51C45.5051 84.7917 44.7197 83.195 43.5446 81.905C42.1974 80.6798 40.4879 79.9269 38.6746 79.76C36.87 79.512 35.0325 79.6831 33.3046 80.26C32.5457 80.4901 31.8426 80.8748 31.2396 81.39C30.8096 81.79 30.3196 82.45 30.4946 83.1C30.6696 83.75 31.6196 84.04 32.2646 83.955C33.2192 83.7761 34.0936 83.3021 34.7646 82.6C35.5124 81.8638 36.1476 81.0214 36.6496 80.1C37.0226 79.4377 37.2173 78.69 37.2146 77.93C37.1496 74.76 33.6446 72.7099 30.8996 72.1299C30.1586 71.9751 29.3996 71.9247 28.6446 71.98C28.3896 71.98 28.5446 72.4 28.7496 72.385C30.2268 72.3178 31.6947 72.6494 32.9996 73.345C34.287 73.9367 35.3682 74.8995 36.1046 76.11C36.4328 76.7067 36.5948 77.3806 36.5737 78.0614C36.5526 78.7421 36.3491 79.4047 35.9846 79.98C35.495 80.8327 34.8855 81.6106 34.1746 82.29C33.5796 82.83 32.6746 83.4549 31.8396 83.3949C31.7018 83.3946 31.5668 83.3556 31.4501 83.2822C31.3334 83.2088 31.2396 83.1041 31.1796 82.98C31.1544 82.8158 31.168 82.648 31.2192 82.49C31.2704 82.332 31.3579 82.1881 31.4746 82.07C31.9161 81.5945 32.4622 81.2281 33.0696 81C34.5697 80.3764 36.1939 80.1094 37.8146 80.22C39.4849 80.2502 41.1092 80.7719 42.4846 81.72C43.6828 82.7148 44.5338 84.0648 44.9146 85.5749C45.397 87.1091 45.547 88.7283 45.3546 90.3249C45.0577 91.9315 44.4404 93.4619 43.5396 94.8249C42.6146 96.3549 41.4546 97.825 39.7146 98.425C39.2846 98.58 38.3846 98.8049 38.2146 98.1799C38.0446 97.5549 38.5346 96.785 38.8496 96.3C39.5462 95.2037 40.5617 94.3469 41.7596 93.845C42.9156 93.3816 44.1634 93.1933 45.4046 93.295C47.7596 93.4699 50.1496 94.6999 50.9696 97.0399C51.381 98.4384 51.4257 99.9192 51.0996 101.34C50.8055 102.897 50.2456 104.392 49.4446 105.76C47.7216 108.666 45.1122 110.942 41.9996 112.255C41.2596 112.575 40.4996 112.845 39.7246 113.095C39.6446 113.125 39.6796 113.325 39.7696 113.31Z" fill="#E0E0E0"/>
  <path d="M23.8749 69.8999C21.8749 69.7549 19.1199 71.3299 20.0999 72.4799C21.0799 73.6299 23.6799 71.7699 23.6799 71.7699C23.6799 71.7699 23.4349 74.0949 24.2849 74.3599C25.1349 74.6249 26.2849 72.4049 25.4349 70.9849C25.8449 71.1465 26.289 71.2019 26.726 71.146C27.1631 71.09 27.5789 70.9246 27.9349 70.6649C29.1449 69.7749 27.8649 68.9349 26.1599 69.0849C26.1599 69.0849 27.3799 65.0849 24.9149 65.8499C23.6799 66.2249 23.2449 67.6699 23.8749 69.8999Z" fill="#1BAA75"/>
  <path opacity="0.65" d="M23.8749 69.8999C21.8749 69.7549 19.1199 71.3299 20.0999 72.4799C21.0799 73.6299 23.6799 71.7699 23.6799 71.7699C23.6799 71.7699 23.4349 74.0949 24.2849 74.3599C25.1349 74.6249 26.2849 72.4049 25.4349 70.9849C25.8449 71.1465 26.289 71.2019 26.726 71.146C27.1631 71.09 27.5789 70.9246 27.9349 70.6649C29.1449 69.7749 27.8649 68.9349 26.1599 69.0849C26.1599 69.0849 27.3799 65.0849 24.9149 65.8499C23.6799 66.2249 23.2449 67.6699 23.8749 69.8999Z" fill="white"/>
  <path d="M25.7351 70.75C25.6245 70.6417 25.5076 70.5398 25.3851 70.445C25.2101 70.31 25.0251 70.18 24.8501 70.05C24.6798 69.9261 24.501 69.8142 24.3151 69.715C24.2082 69.6557 24.098 69.6023 23.9851 69.555C23.8293 69.4819 23.656 69.4541 23.4851 69.475C23.4404 69.4763 23.3967 69.4896 23.3588 69.5135C23.321 69.5374 23.2902 69.571 23.2697 69.6109C23.2493 69.6507 23.2399 69.6953 23.2426 69.7401C23.2454 69.7848 23.26 69.8279 23.2851 69.865C23.4226 70.0139 23.5942 70.1272 23.7851 70.195L24.0551 70.34C24.2401 70.45 24.4051 70.575 24.5551 70.7C24.7051 70.825 24.9051 70.945 25.0551 71.07C25.313 71.2792 25.6014 71.4478 25.9101 71.57C25.924 71.5775 25.9394 71.5814 25.9551 71.5814C25.9708 71.5814 25.9863 71.5775 26.0001 71.57C26.2551 71.37 25.8801 70.895 25.7351 70.75Z" fill="#455A64"/>
</svg>