<svg width="144" height="148" viewBox="0 0 144 148" fill="none" xmlns="http://www.w3.org/2000/svg">
<path d="M61.3048 117.76V106.33H67.0148V100.58H61.3248C61.3248 98.67 61.3248 96.75 61.3248 94.84H72.7748V89.13H78.4948V94.81H84.2348V83.33H101.435V89.04H107.125V83.33H101.415V77.57H89.9448V66.19H72.7348V71.91H61.3248V83.38H67.0048V89.1H61.2948V94.83H55.5748V89.09H38.3848V83.38H55.5748V37.5H61.3248C61.3248 43.02 61.3248 48.54 61.3248 54.06V54.68H67.0548V43.25H72.7648V54.7H78.5248V60.41H107.185V66.13H112.925V71.9H107.215V77.65H112.905V89.13H118.655V100.59H112.965V112.03H118.575V117.76H130.025V123.48H112.905V134.93H107.185V129.21H95.6848V123.48H89.9648V117.76H101.375V112.03H72.7848V117.73H61.3048V117.76ZM95.6848 100.56V94.86H89.9948V100.55H95.7048V106.26H107.125V100.56H95.6848ZM84.2048 100.56H78.5748V106.23H84.2448L84.2048 100.56ZM95.7148 71.83H101.385V66.15H95.7148V71.83Z" fill="#24334B"/>
<path d="M9.71484 54.6601V14.5801H49.7848V54.6601H9.71484ZM15.4648 20.3301V48.9401H44.0648V20.3301H15.4648Z" fill="#24334B"/>
<path d="M130.056 54.6701H89.9863V14.6001H130.056V54.6701ZM124.336 20.3301H95.7363V48.9301H124.336V20.3301Z" fill="#24334B"/>
<path d="M9.72656 94.8398H49.8066V134.92H9.72656V94.8398ZM44.0766 100.59H15.4666V129.2H44.0766V100.59Z" fill="#24334B"/>
<path d="M61.2962 37.4998V26.0298H55.5762V14.5898H84.1862V26.0098H78.5762V31.7498H84.2462V43.1898H78.5362V37.4998H72.7762V31.7798H67.0562V37.4798H61.2862L61.2962 37.4998ZM67.0462 25.9899H72.7262V20.3298H67.0462V25.9899Z" fill="#24334B"/>
<path d="M38.3563 66.1499V71.8799H49.8063V77.5999H32.6363V89.0599H9.73633V77.6599H15.4063V83.3299H26.9063V66.1499H38.3663H38.3563Z" fill="#24334B"/>
<path d="M61.2862 117.75V123.48H67.0162V129.2H72.7262V134.93H55.5762V117.76H61.2662L61.2862 117.75Z" fill="#24334B"/>
<path d="M26.9063 66.15H15.4463V71.86H9.73633V60.46H26.8863V66.16L26.9063 66.15Z" fill="#24334B"/>
<path d="M130.056 77.6002H124.376V66.1702H118.656V60.4502H130.056V77.6002Z" fill="#24334B"/>
<path d="M38.3655 66.17V60.46H49.7955V66.15H38.3555L38.3655 66.17Z" fill="#24334B"/>
<path d="M118.636 89.1001V83.3901H124.326V89.0801H118.576L118.636 89.1001Z" fill="#24334B"/>
<path d="M124.385 94.8501H130.055V100.53H124.385V94.8501Z" fill="#24334B"/>
<path d="M78.4963 54.7002V48.9902H84.1963V54.6802H78.4863L78.4963 54.7002Z" fill="#24334B"/>
<path d="M61.3062 106.33H55.5762V100.61H61.2662V106.33H61.3062Z" fill="#24334B"/>
<path d="M118.635 112.03V106.33H124.325V112.02H118.635V112.03Z" fill="#24334B"/>
<path d="M112.885 71.9001H118.575V77.6201H112.885V71.8701V71.9001Z" fill="#24334B"/>
<path d="M84.1956 129.2H78.5156V123.53H84.1956V129.2Z" fill="#24334B"/>
<path d="M95.6861 129.21V134.92H89.9961V129.23H95.7061L95.6861 129.21Z" fill="#24334B"/>
<path d="M130.055 134.94H124.385V129.26H130.055V134.94Z" fill="#24334B"/>
<path d="M84.2362 83.3301H78.5762V77.6401H84.2762V83.3301H84.2362Z" fill="#24334B"/>
<path d="M38.3255 43.2001H21.1855V26.0601H38.3255V43.2001Z" fill="#24334B"/>
<path d="M101.445 43.1898V26.0498H118.575V43.1898H101.445Z" fill="#24334B"/>
<path d="M21.1855 123.46V106.33H38.3255V123.47L21.1855 123.46Z" fill="#24334B"/>
<path d="M26.3656 1H1.26562V28.69" stroke="#1BAA75" stroke-width="2" stroke-miterlimit="10"/>
<path d="M117.646 1H142.736V28.69" stroke="#1BAA75" stroke-width="2" stroke-miterlimit="10"/>
<path d="M26.3656 146.82H1.26562V119.13" stroke="#1BAA75" stroke-width="2" stroke-miterlimit="10"/>
<path d="M117.646 146.82H142.736V119.13" stroke="#1BAA75" stroke-width="2" stroke-miterlimit="10"/>
</svg>
