<svg width="64" height="64" viewBox="0 0 64 64" fill="none" xmlns="http://www.w3.org/2000/svg">
<path d="M45.3335 15.998V26.6647V27.998C41.3934 27.998 37.8524 29.7071 35.4115 32.4244C33.2906 34.7855 32.0002 37.9078 32.0002 41.3314C32.0002 42.1032 32.0658 42.8598 32.1916 43.5958C32.8774 47.6042 35.3526 51.0019 38.7656 52.9375C35.2156 54.0108 30.5036 54.6647 25.3335 54.6647C14.2878 54.6647 5.3335 51.6799 5.3335 47.998V37.3314V26.6647V15.998" stroke="currentColor" stroke-width="3" stroke-linecap="round" stroke-linejoin="round"/>
<path d="M58.6667 41.3314C58.6667 48.6951 52.6971 54.6647 45.3333 54.6647C42.9455 54.6647 40.7041 54.037 38.7655 52.9375C35.3524 51.0019 32.8772 47.6042 32.1915 43.5958C32.0656 42.8598 32 42.1032 32 41.3314C32 37.9078 33.2904 34.7855 35.4113 32.4244C37.8523 29.7071 41.3932 27.998 45.3333 27.998C52.6971 27.998 58.6667 33.9676 58.6667 41.3314Z" fill="#1BAA75" stroke="currentColor" stroke-width="3" stroke-linecap="round" stroke-linejoin="round"/>
<path d="M45.3335 15.9987C45.3335 19.6806 36.3792 22.6654 25.3335 22.6654C14.2878 22.6654 5.3335 19.6806 5.3335 15.9987C5.3335 12.3168 14.2878 9.33203 25.3335 9.33203C36.3792 9.33203 45.3335 12.3168 45.3335 15.9987Z" fill="#1BAA75" stroke="currentColor" stroke-width="3" stroke-linecap="round" stroke-linejoin="round"/>
<path d="M5.3335 37.332C5.3335 41.0139 14.2878 43.9987 25.3335 43.9987C27.7428 43.9987 30.0526 43.8567 32.1916 43.5964" stroke="currentColor" stroke-width="3" stroke-linecap="round" stroke-linejoin="round"/>
<path d="M5.3335 26.666C5.3335 30.3479 14.2878 33.3327 25.3335 33.3327C29.0086 33.3327 32.4522 33.0023 35.4115 32.4257" stroke="currentColor" stroke-width="3" stroke-linecap="round" stroke-linejoin="round"/>
<path d="M49.1045 45.1035L54.6666 50.6656" stroke="white" stroke-width="2" stroke-linecap="round" stroke-linejoin="round"/>
<path d="M50.6667 41.3314C50.6667 42.8042 50.0697 44.1375 49.1045 45.1026C48.1395 46.0678 46.8061 46.6647 45.3333 46.6647C42.3879 46.6647 40 44.2768 40 41.3314C40 38.3859 42.3879 35.998 45.3333 35.998C48.2788 35.998 50.6667 38.3859 50.6667 41.3314Z" fill="#1BAA75" stroke="white" stroke-width="3" stroke-linecap="round" stroke-linejoin="round"/>
<path d="M58.6668 41.332C58.6668 48.6958 52.6972 54.6654 45.3335 54.6654" stroke="currentColor" stroke-width="3" stroke-linecap="round" stroke-linejoin="round"/>
</svg>
