<svg xmlns="http://www.w3.org/2000/svg" width="24" height="24" viewBox="0 0 24 24" fill="none">
  <path d="M9.46881 17.3367C11.2147 17.3363 12.9102 16.7519 14.2854 15.6765L18.6093 20.0001L20.0001 18.6094L15.6762 14.2858C16.7523 12.9104 17.3371 11.2146 17.3375 9.46839C17.3375 5.13001 13.8074 1.6001 9.46881 1.6001C5.1302 1.6001 1.6001 5.13001 1.6001 9.46839C1.6001 13.8068 5.1302 17.3367 9.46881 17.3367ZM9.46881 3.56717C12.7235 3.56717 15.3703 6.21387 15.3703 9.46839C15.3703 12.7229 12.7235 15.3696 9.46881 15.3696C6.21411 15.3696 3.56728 12.7229 3.56728 9.46839C3.56728 6.21387 6.21411 3.56717 9.46881 3.56717Z" fill="white"/>
</svg>