<svg width="64" height="64" viewBox="0 0 64 64" fill="none" xmlns="http://www.w3.org/2000/svg">
<path d="M25.3333 26.6667C30.488 26.6667 34.6667 22.488 34.6667 17.3333C34.6667 12.1787 30.488 8 25.3333 8C20.1787 8 16 12.1787 16 17.3333C16 22.488 20.1787 26.6667 25.3333 26.6667Z" fill="#1BAA75" stroke="currentColor" stroke-width="3" stroke-linejoin="round"/>
<path d="M36 37.334H25.0667C19.0928 37.334 16.1059 37.334 13.8241 38.4965C11.817 39.5192 10.1852 41.151 9.1626 43.1581C8 45.4398 8 48.4268 8 54.4006V56.0006H36" stroke="currentColor" stroke-width="3" stroke-linecap="round" stroke-linejoin="round"/>
<path d="M53.3328 54.6663L49.104 50.4375" stroke="currentColor" stroke-width="3" stroke-linecap="round" stroke-linejoin="round"/>
<path d="M50.6667 46.6673C50.6667 48.1401 50.0697 49.4735 49.1045 50.4385C48.1395 51.4037 46.8061 52.0007 45.3333 52.0007C42.3879 52.0007 40 49.6128 40 46.6673C40 43.7219 42.3879 41.334 45.3333 41.334C48.2788 41.334 50.6667 43.7219 50.6667 46.6673Z" fill="#1BAA75" stroke="currentColor" stroke-width="3" stroke-linecap="round" stroke-linejoin="round"/>
</svg>
