<svg width="30" height="30" viewBox="0 0 30 30" fill="none" xmlns="http://www.w3.org/2000/svg">
<path d="M11.8359 21.6707C14.0182 21.6703 16.1376 20.9398 17.8567 19.5955L23.2615 25L25 23.2616L19.5952 17.8571C20.9402 16.1379 21.6713 14.0181 21.6718 11.8354C21.6718 6.41239 17.2592 2 11.8359 2C6.41263 2 2 6.41239 2 11.8354C2 17.2583 6.41263 21.6707 11.8359 21.6707ZM11.8359 4.45884C15.9043 4.45884 19.2128 7.76721 19.2128 11.8354C19.2128 15.9035 15.9043 19.2119 11.8359 19.2119C7.76752 19.2119 4.45897 15.9035 4.45897 11.8354C4.45897 7.76721 7.76752 4.45884 11.8359 4.45884Z" fill="white"/>
</svg>
